<svg xmlns="http://www.w3.org/2000/svg" xmlns:xlink="http://www.w3.org/1999/xlink" width="142" zoomAndPan="magnify" viewBox="0 0 106.5 32.999998" height="44" preserveAspectRatio="xMidYMid meet" version="1.0"><defs><g/><clipPath id="7f509db4d1"><path d="M 44 22 L 53 22 L 53 32.921875 L 44 32.921875 Z M 44 22 " clip-rule="nonzero"/></clipPath><clipPath id="4f6a8fdd57"><path d="M 44 21 L 52 21 L 52 32.921875 L 44 32.921875 Z M 44 21 " clip-rule="nonzero"/></clipPath><clipPath id="350fcb2fa1"><path d="M 0 1.46875 L 32.097656 1.46875 L 32.097656 31.328125 L 0 31.328125 Z M 0 1.46875 " clip-rule="nonzero"/></clipPath><clipPath id="eb4be450f2"><path d="M 0 1.46875 L 17 1.46875 L 17 29 L 0 29 Z M 0 1.46875 " clip-rule="nonzero"/></clipPath></defs><g fill="#000000" fill-opacity="0.4"><g transform="translate(33.94582, 30.596735)"><g><path d="M 7.40625 -8.453125 C 7.144531 -8.742188 6.847656 -8.972656 6.515625 -9.140625 C 6.179688 -9.304688 5.742188 -9.390625 5.203125 -9.390625 C 4.597656 -9.390625 4.132812 -9.28125 3.8125 -9.0625 C 3.5 -8.84375 3.34375 -8.550781 3.34375 -8.1875 C 3.34375 -7.675781 3.742188 -7.300781 4.546875 -7.0625 L 6.90625 -6.390625 C 7.789062 -6.140625 8.445312 -5.742188 8.875 -5.203125 C 9.3125 -4.671875 9.53125 -4.023438 9.53125 -3.265625 C 9.53125 -2.566406 9.347656 -1.960938 8.984375 -1.453125 C 8.628906 -0.941406 8.117188 -0.546875 7.453125 -0.265625 C 6.785156 0.015625 6 0.15625 5.09375 0.15625 C 4.070312 0.15625 3.15625 -0.015625 2.34375 -0.359375 C 1.53125 -0.703125 0.929688 -1.175781 0.546875 -1.78125 C 0.515625 -1.84375 0.5 -1.90625 0.5 -1.96875 C 0.5 -2.050781 0.546875 -2.132812 0.640625 -2.21875 L 1.796875 -3.015625 C 1.890625 -3.078125 1.976562 -3.109375 2.0625 -3.109375 C 2.144531 -3.109375 2.21875 -3.066406 2.28125 -2.984375 C 2.644531 -2.503906 3.015625 -2.164062 3.390625 -1.96875 C 3.773438 -1.769531 4.28125 -1.671875 4.90625 -1.671875 C 5.570312 -1.671875 6.09375 -1.773438 6.46875 -1.984375 C 6.851562 -2.191406 7.046875 -2.503906 7.046875 -2.921875 C 7.046875 -3.191406 6.945312 -3.421875 6.75 -3.609375 C 6.5625 -3.796875 6.242188 -3.960938 5.796875 -4.109375 L 3.546875 -4.75 C 2.691406 -4.988281 2.03125 -5.390625 1.5625 -5.953125 C 1.09375 -6.515625 0.859375 -7.148438 0.859375 -7.859375 C 0.859375 -8.492188 1.035156 -9.066406 1.390625 -9.578125 C 1.742188 -10.085938 2.242188 -10.488281 2.890625 -10.78125 C 3.535156 -11.070312 4.285156 -11.21875 5.140625 -11.21875 C 5.972656 -11.21875 6.734375 -11.078125 7.421875 -10.796875 C 8.117188 -10.515625 8.65625 -10.132812 9.03125 -9.65625 C 9.09375 -9.570312 9.125 -9.503906 9.125 -9.453125 C 9.125 -9.390625 9.09375 -9.332031 9.03125 -9.28125 L 7.78125 -8.359375 C 7.71875 -8.316406 7.671875 -8.296875 7.640625 -8.296875 C 7.585938 -8.296875 7.507812 -8.347656 7.40625 -8.453125 Z M 7.40625 -8.453125 "/></g></g></g><g clip-path="url(#7f509db4d1)"><g fill="#000000" fill-opacity="0.4"><g transform="translate(44.045525, 30.596735)"><g><path d="M 2.8125 -7.90625 C 2.925781 -7.90625 3.007812 -7.882812 3.0625 -7.84375 C 3.113281 -7.800781 3.140625 -7.722656 3.140625 -7.609375 L 3.140625 -7.15625 C 3.140625 -7.09375 3.15625 -7.0625 3.1875 -7.0625 C 3.21875 -7.0625 3.269531 -7.082031 3.34375 -7.125 C 3.65625 -7.414062 3.972656 -7.644531 4.296875 -7.8125 C 4.617188 -7.976562 5.023438 -8.0625 5.515625 -8.0625 C 6.421875 -8.0625 7.15625 -7.71875 7.71875 -7.03125 C 8.289062 -6.34375 8.578125 -5.335938 8.578125 -4.015625 C 8.578125 -2.640625 8.285156 -1.597656 7.703125 -0.890625 C 7.117188 -0.191406 6.351562 0.15625 5.40625 0.15625 C 4.613281 0.15625 3.945312 -0.0976562 3.40625 -0.609375 C 3.300781 -0.691406 3.226562 -0.734375 3.1875 -0.734375 C 3.144531 -0.734375 3.125 -0.660156 3.125 -0.515625 L 3.125 2.203125 C 3.125 2.378906 3.046875 2.46875 2.890625 2.46875 L 1.0625 2.46875 C 0.988281 2.46875 0.929688 2.441406 0.890625 2.390625 C 0.847656 2.347656 0.828125 2.28125 0.828125 2.1875 L 0.828125 -7.578125 C 0.828125 -7.703125 0.851562 -7.785156 0.90625 -7.828125 C 0.957031 -7.878906 1.039062 -7.90625 1.15625 -7.90625 Z M 3.125 -2.046875 C 3.34375 -1.804688 3.566406 -1.617188 3.796875 -1.484375 C 4.023438 -1.359375 4.273438 -1.296875 4.546875 -1.296875 C 5.679688 -1.296875 6.25 -2.21875 6.25 -4.0625 C 6.25 -4.976562 6.101562 -5.628906 5.8125 -6.015625 C 5.53125 -6.410156 5.125 -6.609375 4.59375 -6.609375 C 4.1875 -6.609375 3.835938 -6.484375 3.546875 -6.234375 C 3.265625 -5.992188 3.125 -5.722656 3.125 -5.421875 Z M 3.125 -2.046875 "/></g></g></g></g><g fill="#000000" fill-opacity="0.4"><g transform="translate(53.130781, 30.596735)"><g><path d="M 2.828125 -3.28125 C 2.828125 -2.726562 3.015625 -2.28125 3.390625 -1.9375 C 3.765625 -1.59375 4.234375 -1.421875 4.796875 -1.421875 C 5.148438 -1.421875 5.476562 -1.492188 5.78125 -1.640625 C 6.082031 -1.796875 6.390625 -2.054688 6.703125 -2.421875 C 6.742188 -2.460938 6.78125 -2.484375 6.8125 -2.484375 C 6.84375 -2.484375 6.894531 -2.46875 6.96875 -2.4375 L 8.046875 -1.984375 C 8.109375 -1.953125 8.140625 -1.898438 8.140625 -1.828125 C 8.140625 -1.785156 8.125 -1.738281 8.09375 -1.6875 C 7.613281 -1.007812 7.097656 -0.53125 6.546875 -0.25 C 6.003906 0.0195312 5.320312 0.15625 4.5 0.15625 C 3.738281 0.15625 3.046875 -0.0078125 2.421875 -0.34375 C 1.804688 -0.6875 1.328125 -1.160156 0.984375 -1.765625 C 0.640625 -2.367188 0.46875 -3.054688 0.46875 -3.828125 C 0.46875 -4.671875 0.644531 -5.410156 1 -6.046875 C 1.351562 -6.691406 1.835938 -7.1875 2.453125 -7.53125 C 3.066406 -7.882812 3.738281 -8.0625 4.46875 -8.0625 C 5.21875 -8.0625 5.882812 -7.894531 6.46875 -7.5625 C 7.0625 -7.226562 7.519531 -6.742188 7.84375 -6.109375 C 8.175781 -5.484375 8.34375 -4.738281 8.34375 -3.875 C 8.34375 -3.75 8.328125 -3.660156 8.296875 -3.609375 C 8.273438 -3.554688 8.207031 -3.523438 8.09375 -3.515625 L 3.015625 -3.515625 C 2.890625 -3.515625 2.828125 -3.4375 2.828125 -3.28125 Z M 5.828125 -4.78125 C 5.941406 -4.78125 6.015625 -4.789062 6.046875 -4.8125 C 6.078125 -4.832031 6.09375 -4.890625 6.09375 -4.984375 C 6.09375 -5.242188 6.03125 -5.5 5.90625 -5.75 C 5.789062 -6.007812 5.617188 -6.222656 5.390625 -6.390625 C 5.160156 -6.566406 4.878906 -6.65625 4.546875 -6.65625 C 4.054688 -6.65625 3.648438 -6.476562 3.328125 -6.125 C 3.003906 -5.78125 2.847656 -5.335938 2.859375 -4.796875 Z M 5.828125 -4.78125 "/></g></g></g><g fill="#000000" fill-opacity="0.4"><g transform="translate(61.872918, 30.596735)"><g><path d="M 4.4375 -8.0625 C 5.320312 -8.0625 6.050781 -7.835938 6.625 -7.390625 C 7.207031 -6.953125 7.597656 -6.421875 7.796875 -5.796875 C 7.816406 -5.710938 7.828125 -5.660156 7.828125 -5.640625 C 7.828125 -5.546875 7.757812 -5.488281 7.625 -5.46875 L 6.0625 -5.328125 L 6.015625 -5.328125 C 5.921875 -5.328125 5.859375 -5.378906 5.828125 -5.484375 C 5.648438 -5.847656 5.46875 -6.113281 5.28125 -6.28125 C 5.101562 -6.457031 4.84375 -6.546875 4.5 -6.546875 C 3.96875 -6.546875 3.550781 -6.328125 3.25 -5.890625 C 2.945312 -5.453125 2.796875 -4.804688 2.796875 -3.953125 C 2.796875 -3.078125 2.957031 -2.421875 3.28125 -1.984375 C 3.601562 -1.546875 4.050781 -1.328125 4.625 -1.328125 C 5.03125 -1.328125 5.363281 -1.429688 5.625 -1.640625 C 5.882812 -1.847656 6.140625 -2.164062 6.390625 -2.59375 C 6.421875 -2.644531 6.453125 -2.671875 6.484375 -2.671875 C 6.515625 -2.679688 6.566406 -2.679688 6.640625 -2.671875 L 7.75 -2.421875 C 7.832031 -2.410156 7.875 -2.359375 7.875 -2.265625 L 7.84375 -2.140625 C 7.644531 -1.554688 7.257812 -1.023438 6.6875 -0.546875 C 6.113281 -0.078125 5.363281 0.15625 4.4375 0.15625 C 3.664062 0.15625 2.976562 -0.015625 2.375 -0.359375 C 1.78125 -0.703125 1.3125 -1.179688 0.96875 -1.796875 C 0.632812 -2.421875 0.46875 -3.128906 0.46875 -3.921875 C 0.46875 -4.734375 0.640625 -5.453125 0.984375 -6.078125 C 1.328125 -6.703125 1.796875 -7.1875 2.390625 -7.53125 C 2.992188 -7.882812 3.675781 -8.0625 4.4375 -8.0625 Z M 4.4375 -8.0625 "/></g></g></g><g fill="#000000" fill-opacity="0.4"><g transform="translate(70.092909, 30.596735)"><g><path d="M 3.15625 -9.234375 C 3.15625 -8.984375 3.019531 -8.859375 2.75 -8.859375 L 1.140625 -8.859375 C 1.015625 -8.859375 0.925781 -8.882812 0.875 -8.9375 C 0.832031 -9 0.8125 -9.085938 0.8125 -9.203125 L 0.8125 -10.78125 C 0.8125 -10.976562 0.894531 -11.078125 1.0625 -11.078125 L 2.90625 -11.078125 C 2.976562 -11.078125 3.035156 -11.050781 3.078125 -11 C 3.128906 -10.945312 3.15625 -10.875 3.15625 -10.78125 Z M 3.125 -0.359375 C 3.125 -0.234375 3.09375 -0.140625 3.03125 -0.078125 C 2.96875 -0.0234375 2.863281 0 2.71875 0 L 1.15625 0 C 1.03125 0 0.941406 -0.0234375 0.890625 -0.078125 C 0.847656 -0.128906 0.828125 -0.207031 0.828125 -0.3125 L 0.828125 -7.625 C 0.828125 -7.8125 0.910156 -7.90625 1.078125 -7.90625 L 2.890625 -7.90625 C 3.046875 -7.90625 3.125 -7.820312 3.125 -7.65625 Z M 3.125 -0.359375 "/></g></g></g><g fill="#000000" fill-opacity="0.4"><g transform="translate(74.046261, 30.596735)"><g><path d="M 5.171875 -0.765625 C 4.515625 -0.148438 3.734375 0.15625 2.828125 0.15625 C 2.085938 0.15625 1.5 -0.046875 1.0625 -0.453125 C 0.625 -0.859375 0.40625 -1.382812 0.40625 -2.03125 C 0.40625 -2.863281 0.785156 -3.535156 1.546875 -4.046875 C 2.316406 -4.554688 3.375 -4.820312 4.71875 -4.84375 L 5.25 -4.890625 C 5.3125 -4.890625 5.363281 -4.90625 5.40625 -4.9375 C 5.445312 -4.976562 5.46875 -5.035156 5.46875 -5.109375 L 5.46875 -5.421875 C 5.46875 -5.804688 5.359375 -6.101562 5.140625 -6.3125 C 4.921875 -6.519531 4.609375 -6.625 4.203125 -6.625 C 3.503906 -6.625 2.988281 -6.328125 2.65625 -5.734375 C 2.613281 -5.628906 2.550781 -5.578125 2.46875 -5.578125 C 2.414062 -5.578125 2.367188 -5.582031 2.328125 -5.59375 L 0.828125 -5.9375 C 0.742188 -5.957031 0.703125 -6.015625 0.703125 -6.109375 C 0.703125 -6.160156 0.722656 -6.234375 0.765625 -6.328125 C 1.003906 -6.898438 1.425781 -7.332031 2.03125 -7.625 C 2.644531 -7.914062 3.40625 -8.0625 4.3125 -8.0625 C 5.5 -8.0625 6.351562 -7.84375 6.875 -7.40625 C 7.40625 -6.976562 7.671875 -6.363281 7.671875 -5.5625 L 7.671875 -0.328125 C 7.671875 -0.210938 7.648438 -0.128906 7.609375 -0.078125 C 7.566406 -0.0234375 7.492188 0 7.390625 0 L 5.84375 0 C 5.75 0 5.675781 -0.03125 5.625 -0.09375 C 5.582031 -0.164062 5.550781 -0.273438 5.53125 -0.421875 L 5.515625 -0.75 C 5.503906 -0.832031 5.46875 -0.875 5.40625 -0.875 C 5.363281 -0.875 5.285156 -0.835938 5.171875 -0.765625 Z M 5.46875 -3.515625 C 5.46875 -3.609375 5.453125 -3.675781 5.421875 -3.71875 C 5.398438 -3.757812 5.34375 -3.78125 5.25 -3.78125 L 4.828125 -3.75 C 4.253906 -3.71875 3.742188 -3.578125 3.296875 -3.328125 C 2.859375 -3.085938 2.640625 -2.753906 2.640625 -2.328125 C 2.640625 -2.023438 2.742188 -1.785156 2.953125 -1.609375 C 3.160156 -1.441406 3.445312 -1.359375 3.8125 -1.359375 C 4.269531 -1.359375 4.660156 -1.492188 4.984375 -1.765625 C 5.304688 -2.023438 5.46875 -2.285156 5.46875 -2.546875 Z M 5.46875 -3.515625 "/></g></g></g><g fill="#000000" fill-opacity="0.4"><g transform="translate(82.445279, 30.596735)"><g><path d="M 3.140625 -0.359375 C 3.140625 -0.234375 3.109375 -0.140625 3.046875 -0.078125 C 2.984375 -0.0234375 2.878906 0 2.734375 0 L 1.15625 0 C 1.03125 0 0.941406 -0.0234375 0.890625 -0.078125 C 0.847656 -0.128906 0.828125 -0.207031 0.828125 -0.3125 L 0.859375 -10.78125 C 0.859375 -10.976562 0.941406 -11.078125 1.109375 -11.078125 L 2.90625 -11.078125 C 3.0625 -11.078125 3.140625 -10.984375 3.140625 -10.796875 Z M 3.140625 -0.359375 "/></g></g></g><g fill="#000000" fill-opacity="0.4"><g transform="translate(86.413552, 30.596735)"><g><path d="M 3.15625 -9.234375 C 3.15625 -8.984375 3.019531 -8.859375 2.75 -8.859375 L 1.140625 -8.859375 C 1.015625 -8.859375 0.925781 -8.882812 0.875 -8.9375 C 0.832031 -9 0.8125 -9.085938 0.8125 -9.203125 L 0.8125 -10.78125 C 0.8125 -10.976562 0.894531 -11.078125 1.0625 -11.078125 L 2.90625 -11.078125 C 2.976562 -11.078125 3.035156 -11.050781 3.078125 -11 C 3.128906 -10.945312 3.15625 -10.875 3.15625 -10.78125 Z M 3.125 -0.359375 C 3.125 -0.234375 3.09375 -0.140625 3.03125 -0.078125 C 2.96875 -0.0234375 2.863281 0 2.71875 0 L 1.15625 0 C 1.03125 0 0.941406 -0.0234375 0.890625 -0.078125 C 0.847656 -0.128906 0.828125 -0.207031 0.828125 -0.3125 L 0.828125 -7.625 C 0.828125 -7.8125 0.910156 -7.90625 1.078125 -7.90625 L 2.890625 -7.90625 C 3.046875 -7.90625 3.125 -7.820312 3.125 -7.65625 Z M 3.125 -0.359375 "/></g></g></g><g fill="#000000" fill-opacity="0.4"><g transform="translate(90.366904, 30.596735)"><g><path d="M 5.703125 -5.84375 C 5.296875 -6.382812 4.710938 -6.65625 3.953125 -6.65625 C 3.578125 -6.65625 3.265625 -6.582031 3.015625 -6.4375 C 2.765625 -6.289062 2.640625 -6.09375 2.640625 -5.84375 C 2.640625 -5.707031 2.695312 -5.582031 2.8125 -5.46875 C 2.925781 -5.351562 3.148438 -5.253906 3.484375 -5.171875 L 5.1875 -4.765625 C 5.976562 -4.578125 6.554688 -4.273438 6.921875 -3.859375 C 7.285156 -3.441406 7.46875 -2.957031 7.46875 -2.40625 C 7.46875 -1.613281 7.140625 -0.988281 6.484375 -0.53125 C 5.828125 -0.0703125 4.96875 0.15625 3.90625 0.15625 C 3.050781 0.15625 2.3125 0.00390625 1.6875 -0.296875 C 1.0625 -0.609375 0.617188 -1.007812 0.359375 -1.5 C 0.304688 -1.5625 0.28125 -1.625 0.28125 -1.6875 C 0.28125 -1.757812 0.316406 -1.804688 0.390625 -1.828125 L 1.40625 -2.359375 C 1.476562 -2.398438 1.546875 -2.421875 1.609375 -2.421875 C 1.671875 -2.421875 1.726562 -2.394531 1.78125 -2.34375 C 2 -2.03125 2.265625 -1.78125 2.578125 -1.59375 C 2.890625 -1.414062 3.300781 -1.328125 3.8125 -1.328125 C 4.28125 -1.328125 4.660156 -1.394531 4.953125 -1.53125 C 5.253906 -1.675781 5.40625 -1.882812 5.40625 -2.15625 C 5.40625 -2.332031 5.328125 -2.476562 5.171875 -2.59375 C 5.023438 -2.71875 4.773438 -2.820312 4.421875 -2.90625 L 2.875 -3.234375 C 1.363281 -3.566406 0.609375 -4.316406 0.609375 -5.484375 C 0.609375 -5.984375 0.742188 -6.425781 1.015625 -6.8125 C 1.296875 -7.207031 1.6875 -7.515625 2.1875 -7.734375 C 2.695312 -7.953125 3.296875 -8.0625 3.984375 -8.0625 C 4.710938 -8.0625 5.359375 -7.925781 5.921875 -7.65625 C 6.484375 -7.382812 6.882812 -7.046875 7.125 -6.640625 C 7.1875 -6.554688 7.21875 -6.488281 7.21875 -6.4375 C 7.21875 -6.375 7.1875 -6.320312 7.125 -6.28125 L 6.046875 -5.765625 C 6.015625 -5.742188 5.972656 -5.734375 5.921875 -5.734375 C 5.835938 -5.734375 5.765625 -5.769531 5.703125 -5.84375 Z M 5.703125 -5.84375 "/></g></g></g><g fill="#000000" fill-opacity="0.4"><g transform="translate(98.273619, 30.596735)"><g><path d="M 4.140625 -6.328125 C 4.035156 -6.328125 3.984375 -6.265625 3.984375 -6.140625 L 3.984375 -2.546875 C 3.984375 -2.210938 4.0625 -1.972656 4.21875 -1.828125 C 4.382812 -1.679688 4.640625 -1.609375 4.984375 -1.609375 L 5.796875 -1.609375 C 5.859375 -1.609375 5.910156 -1.585938 5.953125 -1.546875 C 5.992188 -1.503906 6.015625 -1.441406 6.015625 -1.359375 L 6 -0.453125 C 6 -0.253906 5.890625 -0.132812 5.671875 -0.09375 C 5.253906 -0.03125 4.660156 0 3.890625 0 C 3.191406 0 2.648438 -0.160156 2.265625 -0.484375 C 1.878906 -0.816406 1.6875 -1.296875 1.6875 -1.921875 L 1.6875 -6.109375 C 1.6875 -6.253906 1.625 -6.328125 1.5 -6.328125 L 0.578125 -6.328125 C 0.390625 -6.328125 0.296875 -6.410156 0.296875 -6.578125 L 0.296875 -7.6875 C 0.296875 -7.832031 0.382812 -7.90625 0.5625 -7.90625 L 1.59375 -7.90625 C 1.675781 -7.90625 1.726562 -7.960938 1.75 -8.078125 L 1.953125 -10.34375 C 1.972656 -10.507812 2.046875 -10.59375 2.171875 -10.59375 L 3.8125 -10.59375 C 3.875 -10.59375 3.925781 -10.566406 3.96875 -10.515625 C 4.019531 -10.472656 4.046875 -10.40625 4.046875 -10.3125 L 4.046875 -8.078125 C 4.046875 -7.972656 4.09375 -7.921875 4.1875 -7.921875 L 5.765625 -7.921875 C 5.941406 -7.921875 6.03125 -7.84375 6.03125 -7.6875 L 6.03125 -6.578125 C 6.03125 -6.410156 5.929688 -6.328125 5.734375 -6.328125 Z M 4.140625 -6.328125 "/></g></g></g><g fill="#ffffff" fill-opacity="1"><g transform="translate(33.28601, 29.936927)"><g><path d="M 7.40625 -8.453125 C 7.144531 -8.742188 6.847656 -8.972656 6.515625 -9.140625 C 6.179688 -9.304688 5.742188 -9.390625 5.203125 -9.390625 C 4.597656 -9.390625 4.132812 -9.28125 3.8125 -9.0625 C 3.5 -8.84375 3.34375 -8.550781 3.34375 -8.1875 C 3.34375 -7.675781 3.742188 -7.300781 4.546875 -7.0625 L 6.90625 -6.390625 C 7.789062 -6.140625 8.445312 -5.742188 8.875 -5.203125 C 9.3125 -4.671875 9.53125 -4.023438 9.53125 -3.265625 C 9.53125 -2.566406 9.347656 -1.960938 8.984375 -1.453125 C 8.628906 -0.941406 8.117188 -0.546875 7.453125 -0.265625 C 6.785156 0.015625 6 0.15625 5.09375 0.15625 C 4.070312 0.15625 3.15625 -0.015625 2.34375 -0.359375 C 1.53125 -0.703125 0.929688 -1.175781 0.546875 -1.78125 C 0.515625 -1.84375 0.5 -1.90625 0.5 -1.96875 C 0.5 -2.050781 0.546875 -2.132812 0.640625 -2.21875 L 1.796875 -3.015625 C 1.890625 -3.078125 1.976562 -3.109375 2.0625 -3.109375 C 2.144531 -3.109375 2.21875 -3.066406 2.28125 -2.984375 C 2.644531 -2.503906 3.015625 -2.164062 3.390625 -1.96875 C 3.773438 -1.769531 4.28125 -1.671875 4.90625 -1.671875 C 5.570312 -1.671875 6.09375 -1.773438 6.46875 -1.984375 C 6.851562 -2.191406 7.046875 -2.503906 7.046875 -2.921875 C 7.046875 -3.191406 6.945312 -3.421875 6.75 -3.609375 C 6.5625 -3.796875 6.242188 -3.960938 5.796875 -4.109375 L 3.546875 -4.75 C 2.691406 -4.988281 2.03125 -5.390625 1.5625 -5.953125 C 1.09375 -6.515625 0.859375 -7.148438 0.859375 -7.859375 C 0.859375 -8.492188 1.035156 -9.066406 1.390625 -9.578125 C 1.742188 -10.085938 2.242188 -10.488281 2.890625 -10.78125 C 3.535156 -11.070312 4.285156 -11.21875 5.140625 -11.21875 C 5.972656 -11.21875 6.734375 -11.078125 7.421875 -10.796875 C 8.117188 -10.515625 8.65625 -10.132812 9.03125 -9.65625 C 9.09375 -9.570312 9.125 -9.503906 9.125 -9.453125 C 9.125 -9.390625 9.09375 -9.332031 9.03125 -9.28125 L 7.78125 -8.359375 C 7.71875 -8.316406 7.671875 -8.296875 7.640625 -8.296875 C 7.585938 -8.296875 7.507812 -8.347656 7.40625 -8.453125 Z M 7.40625 -8.453125 "/></g></g></g><g clip-path="url(#4f6a8fdd57)"><g fill="#ffffff" fill-opacity="1"><g transform="translate(43.385715, 29.936927)"><g><path d="M 2.8125 -7.90625 C 2.925781 -7.90625 3.007812 -7.882812 3.0625 -7.84375 C 3.113281 -7.800781 3.140625 -7.722656 3.140625 -7.609375 L 3.140625 -7.15625 C 3.140625 -7.09375 3.15625 -7.0625 3.1875 -7.0625 C 3.21875 -7.0625 3.269531 -7.082031 3.34375 -7.125 C 3.65625 -7.414062 3.972656 -7.644531 4.296875 -7.8125 C 4.617188 -7.976562 5.023438 -8.0625 5.515625 -8.0625 C 6.421875 -8.0625 7.15625 -7.71875 7.71875 -7.03125 C 8.289062 -6.34375 8.578125 -5.335938 8.578125 -4.015625 C 8.578125 -2.640625 8.285156 -1.597656 7.703125 -0.890625 C 7.117188 -0.191406 6.351562 0.15625 5.40625 0.15625 C 4.613281 0.15625 3.945312 -0.0976562 3.40625 -0.609375 C 3.300781 -0.691406 3.226562 -0.734375 3.1875 -0.734375 C 3.144531 -0.734375 3.125 -0.660156 3.125 -0.515625 L 3.125 2.203125 C 3.125 2.378906 3.046875 2.46875 2.890625 2.46875 L 1.0625 2.46875 C 0.988281 2.46875 0.929688 2.441406 0.890625 2.390625 C 0.847656 2.347656 0.828125 2.28125 0.828125 2.1875 L 0.828125 -7.578125 C 0.828125 -7.703125 0.851562 -7.785156 0.90625 -7.828125 C 0.957031 -7.878906 1.039062 -7.90625 1.15625 -7.90625 Z M 3.125 -2.046875 C 3.34375 -1.804688 3.566406 -1.617188 3.796875 -1.484375 C 4.023438 -1.359375 4.273438 -1.296875 4.546875 -1.296875 C 5.679688 -1.296875 6.25 -2.21875 6.25 -4.0625 C 6.25 -4.976562 6.101562 -5.628906 5.8125 -6.015625 C 5.53125 -6.410156 5.125 -6.609375 4.59375 -6.609375 C 4.1875 -6.609375 3.835938 -6.484375 3.546875 -6.234375 C 3.265625 -5.992188 3.125 -5.722656 3.125 -5.421875 Z M 3.125 -2.046875 "/></g></g></g></g><g fill="#ffffff" fill-opacity="1"><g transform="translate(52.470971, 29.936927)"><g><path d="M 2.828125 -3.28125 C 2.828125 -2.726562 3.015625 -2.28125 3.390625 -1.9375 C 3.765625 -1.59375 4.234375 -1.421875 4.796875 -1.421875 C 5.148438 -1.421875 5.476562 -1.492188 5.78125 -1.640625 C 6.082031 -1.796875 6.390625 -2.054688 6.703125 -2.421875 C 6.742188 -2.460938 6.78125 -2.484375 6.8125 -2.484375 C 6.84375 -2.484375 6.894531 -2.46875 6.96875 -2.4375 L 8.046875 -1.984375 C 8.109375 -1.953125 8.140625 -1.898438 8.140625 -1.828125 C 8.140625 -1.785156 8.125 -1.738281 8.09375 -1.6875 C 7.613281 -1.007812 7.097656 -0.53125 6.546875 -0.25 C 6.003906 0.0195312 5.320312 0.15625 4.5 0.15625 C 3.738281 0.15625 3.046875 -0.0078125 2.421875 -0.34375 C 1.804688 -0.6875 1.328125 -1.160156 0.984375 -1.765625 C 0.640625 -2.367188 0.46875 -3.054688 0.46875 -3.828125 C 0.46875 -4.671875 0.644531 -5.410156 1 -6.046875 C 1.351562 -6.691406 1.835938 -7.1875 2.453125 -7.53125 C 3.066406 -7.882812 3.738281 -8.0625 4.46875 -8.0625 C 5.21875 -8.0625 5.882812 -7.894531 6.46875 -7.5625 C 7.0625 -7.226562 7.519531 -6.742188 7.84375 -6.109375 C 8.175781 -5.484375 8.34375 -4.738281 8.34375 -3.875 C 8.34375 -3.75 8.328125 -3.660156 8.296875 -3.609375 C 8.273438 -3.554688 8.207031 -3.523438 8.09375 -3.515625 L 3.015625 -3.515625 C 2.890625 -3.515625 2.828125 -3.4375 2.828125 -3.28125 Z M 5.828125 -4.78125 C 5.941406 -4.78125 6.015625 -4.789062 6.046875 -4.8125 C 6.078125 -4.832031 6.09375 -4.890625 6.09375 -4.984375 C 6.09375 -5.242188 6.03125 -5.5 5.90625 -5.75 C 5.789062 -6.007812 5.617188 -6.222656 5.390625 -6.390625 C 5.160156 -6.566406 4.878906 -6.65625 4.546875 -6.65625 C 4.054688 -6.65625 3.648438 -6.476562 3.328125 -6.125 C 3.003906 -5.78125 2.847656 -5.335938 2.859375 -4.796875 Z M 5.828125 -4.78125 "/></g></g></g><g fill="#ffffff" fill-opacity="1"><g transform="translate(61.213108, 29.936927)"><g><path d="M 4.4375 -8.0625 C 5.320312 -8.0625 6.050781 -7.835938 6.625 -7.390625 C 7.207031 -6.953125 7.597656 -6.421875 7.796875 -5.796875 C 7.816406 -5.710938 7.828125 -5.660156 7.828125 -5.640625 C 7.828125 -5.546875 7.757812 -5.488281 7.625 -5.46875 L 6.0625 -5.328125 L 6.015625 -5.328125 C 5.921875 -5.328125 5.859375 -5.378906 5.828125 -5.484375 C 5.648438 -5.847656 5.46875 -6.113281 5.28125 -6.28125 C 5.101562 -6.457031 4.84375 -6.546875 4.5 -6.546875 C 3.96875 -6.546875 3.550781 -6.328125 3.25 -5.890625 C 2.945312 -5.453125 2.796875 -4.804688 2.796875 -3.953125 C 2.796875 -3.078125 2.957031 -2.421875 3.28125 -1.984375 C 3.601562 -1.546875 4.050781 -1.328125 4.625 -1.328125 C 5.03125 -1.328125 5.363281 -1.429688 5.625 -1.640625 C 5.882812 -1.847656 6.140625 -2.164062 6.390625 -2.59375 C 6.421875 -2.644531 6.453125 -2.671875 6.484375 -2.671875 C 6.515625 -2.679688 6.566406 -2.679688 6.640625 -2.671875 L 7.75 -2.421875 C 7.832031 -2.410156 7.875 -2.359375 7.875 -2.265625 L 7.84375 -2.140625 C 7.644531 -1.554688 7.257812 -1.023438 6.6875 -0.546875 C 6.113281 -0.078125 5.363281 0.15625 4.4375 0.15625 C 3.664062 0.15625 2.976562 -0.015625 2.375 -0.359375 C 1.78125 -0.703125 1.3125 -1.179688 0.96875 -1.796875 C 0.632812 -2.421875 0.46875 -3.128906 0.46875 -3.921875 C 0.46875 -4.734375 0.640625 -5.453125 0.984375 -6.078125 C 1.328125 -6.703125 1.796875 -7.1875 2.390625 -7.53125 C 2.992188 -7.882812 3.675781 -8.0625 4.4375 -8.0625 Z M 4.4375 -8.0625 "/></g></g></g><g fill="#ffffff" fill-opacity="1"><g transform="translate(69.433099, 29.936927)"><g><path d="M 3.15625 -9.234375 C 3.15625 -8.984375 3.019531 -8.859375 2.75 -8.859375 L 1.140625 -8.859375 C 1.015625 -8.859375 0.925781 -8.882812 0.875 -8.9375 C 0.832031 -9 0.8125 -9.085938 0.8125 -9.203125 L 0.8125 -10.78125 C 0.8125 -10.976562 0.894531 -11.078125 1.0625 -11.078125 L 2.90625 -11.078125 C 2.976562 -11.078125 3.035156 -11.050781 3.078125 -11 C 3.128906 -10.945312 3.15625 -10.875 3.15625 -10.78125 Z M 3.125 -0.359375 C 3.125 -0.234375 3.09375 -0.140625 3.03125 -0.078125 C 2.96875 -0.0234375 2.863281 0 2.71875 0 L 1.15625 0 C 1.03125 0 0.941406 -0.0234375 0.890625 -0.078125 C 0.847656 -0.128906 0.828125 -0.207031 0.828125 -0.3125 L 0.828125 -7.625 C 0.828125 -7.8125 0.910156 -7.90625 1.078125 -7.90625 L 2.890625 -7.90625 C 3.046875 -7.90625 3.125 -7.820312 3.125 -7.65625 Z M 3.125 -0.359375 "/></g></g></g><g fill="#ffffff" fill-opacity="1"><g transform="translate(73.386451, 29.936927)"><g><path d="M 5.171875 -0.765625 C 4.515625 -0.148438 3.734375 0.15625 2.828125 0.15625 C 2.085938 0.15625 1.5 -0.046875 1.0625 -0.453125 C 0.625 -0.859375 0.40625 -1.382812 0.40625 -2.03125 C 0.40625 -2.863281 0.785156 -3.535156 1.546875 -4.046875 C 2.316406 -4.554688 3.375 -4.820312 4.71875 -4.84375 L 5.25 -4.890625 C 5.3125 -4.890625 5.363281 -4.90625 5.40625 -4.9375 C 5.445312 -4.976562 5.46875 -5.035156 5.46875 -5.109375 L 5.46875 -5.421875 C 5.46875 -5.804688 5.359375 -6.101562 5.140625 -6.3125 C 4.921875 -6.519531 4.609375 -6.625 4.203125 -6.625 C 3.503906 -6.625 2.988281 -6.328125 2.65625 -5.734375 C 2.613281 -5.628906 2.550781 -5.578125 2.46875 -5.578125 C 2.414062 -5.578125 2.367188 -5.582031 2.328125 -5.59375 L 0.828125 -5.9375 C 0.742188 -5.957031 0.703125 -6.015625 0.703125 -6.109375 C 0.703125 -6.160156 0.722656 -6.234375 0.765625 -6.328125 C 1.003906 -6.898438 1.425781 -7.332031 2.03125 -7.625 C 2.644531 -7.914062 3.40625 -8.0625 4.3125 -8.0625 C 5.5 -8.0625 6.351562 -7.84375 6.875 -7.40625 C 7.40625 -6.976562 7.671875 -6.363281 7.671875 -5.5625 L 7.671875 -0.328125 C 7.671875 -0.210938 7.648438 -0.128906 7.609375 -0.078125 C 7.566406 -0.0234375 7.492188 0 7.390625 0 L 5.84375 0 C 5.75 0 5.675781 -0.03125 5.625 -0.09375 C 5.582031 -0.164062 5.550781 -0.273438 5.53125 -0.421875 L 5.515625 -0.75 C 5.503906 -0.832031 5.46875 -0.875 5.40625 -0.875 C 5.363281 -0.875 5.285156 -0.835938 5.171875 -0.765625 Z M 5.46875 -3.515625 C 5.46875 -3.609375 5.453125 -3.675781 5.421875 -3.71875 C 5.398438 -3.757812 5.34375 -3.78125 5.25 -3.78125 L 4.828125 -3.75 C 4.253906 -3.71875 3.742188 -3.578125 3.296875 -3.328125 C 2.859375 -3.085938 2.640625 -2.753906 2.640625 -2.328125 C 2.640625 -2.023438 2.742188 -1.785156 2.953125 -1.609375 C 3.160156 -1.441406 3.445312 -1.359375 3.8125 -1.359375 C 4.269531 -1.359375 4.660156 -1.492188 4.984375 -1.765625 C 5.304688 -2.023438 5.46875 -2.285156 5.46875 -2.546875 Z M 5.46875 -3.515625 "/></g></g></g><g fill="#ffffff" fill-opacity="1"><g transform="translate(81.785469, 29.936927)"><g><path d="M 3.140625 -0.359375 C 3.140625 -0.234375 3.109375 -0.140625 3.046875 -0.078125 C 2.984375 -0.0234375 2.878906 0 2.734375 0 L 1.15625 0 C 1.03125 0 0.941406 -0.0234375 0.890625 -0.078125 C 0.847656 -0.128906 0.828125 -0.207031 0.828125 -0.3125 L 0.859375 -10.78125 C 0.859375 -10.976562 0.941406 -11.078125 1.109375 -11.078125 L 2.90625 -11.078125 C 3.0625 -11.078125 3.140625 -10.984375 3.140625 -10.796875 Z M 3.140625 -0.359375 "/></g></g></g><g fill="#ffffff" fill-opacity="1"><g transform="translate(85.753742, 29.936927)"><g><path d="M 3.15625 -9.234375 C 3.15625 -8.984375 3.019531 -8.859375 2.75 -8.859375 L 1.140625 -8.859375 C 1.015625 -8.859375 0.925781 -8.882812 0.875 -8.9375 C 0.832031 -9 0.8125 -9.085938 0.8125 -9.203125 L 0.8125 -10.78125 C 0.8125 -10.976562 0.894531 -11.078125 1.0625 -11.078125 L 2.90625 -11.078125 C 2.976562 -11.078125 3.035156 -11.050781 3.078125 -11 C 3.128906 -10.945312 3.15625 -10.875 3.15625 -10.78125 Z M 3.125 -0.359375 C 3.125 -0.234375 3.09375 -0.140625 3.03125 -0.078125 C 2.96875 -0.0234375 2.863281 0 2.71875 0 L 1.15625 0 C 1.03125 0 0.941406 -0.0234375 0.890625 -0.078125 C 0.847656 -0.128906 0.828125 -0.207031 0.828125 -0.3125 L 0.828125 -7.625 C 0.828125 -7.8125 0.910156 -7.90625 1.078125 -7.90625 L 2.890625 -7.90625 C 3.046875 -7.90625 3.125 -7.820312 3.125 -7.65625 Z M 3.125 -0.359375 "/></g></g></g><g fill="#ffffff" fill-opacity="1"><g transform="translate(89.707094, 29.936927)"><g><path d="M 5.703125 -5.84375 C 5.296875 -6.382812 4.710938 -6.65625 3.953125 -6.65625 C 3.578125 -6.65625 3.265625 -6.582031 3.015625 -6.4375 C 2.765625 -6.289062 2.640625 -6.09375 2.640625 -5.84375 C 2.640625 -5.707031 2.695312 -5.582031 2.8125 -5.46875 C 2.925781 -5.351562 3.148438 -5.253906 3.484375 -5.171875 L 5.1875 -4.765625 C 5.976562 -4.578125 6.554688 -4.273438 6.921875 -3.859375 C 7.285156 -3.441406 7.46875 -2.957031 7.46875 -2.40625 C 7.46875 -1.613281 7.140625 -0.988281 6.484375 -0.53125 C 5.828125 -0.0703125 4.96875 0.15625 3.90625 0.15625 C 3.050781 0.15625 2.3125 0.00390625 1.6875 -0.296875 C 1.0625 -0.609375 0.617188 -1.007812 0.359375 -1.5 C 0.304688 -1.5625 0.28125 -1.625 0.28125 -1.6875 C 0.28125 -1.757812 0.316406 -1.804688 0.390625 -1.828125 L 1.40625 -2.359375 C 1.476562 -2.398438 1.546875 -2.421875 1.609375 -2.421875 C 1.671875 -2.421875 1.726562 -2.394531 1.78125 -2.34375 C 2 -2.03125 2.265625 -1.78125 2.578125 -1.59375 C 2.890625 -1.414062 3.300781 -1.328125 3.8125 -1.328125 C 4.28125 -1.328125 4.660156 -1.394531 4.953125 -1.53125 C 5.253906 -1.675781 5.40625 -1.882812 5.40625 -2.15625 C 5.40625 -2.332031 5.328125 -2.476562 5.171875 -2.59375 C 5.023438 -2.71875 4.773438 -2.820312 4.421875 -2.90625 L 2.875 -3.234375 C 1.363281 -3.566406 0.609375 -4.316406 0.609375 -5.484375 C 0.609375 -5.984375 0.742188 -6.425781 1.015625 -6.8125 C 1.296875 -7.207031 1.6875 -7.515625 2.1875 -7.734375 C 2.695312 -7.953125 3.296875 -8.0625 3.984375 -8.0625 C 4.710938 -8.0625 5.359375 -7.925781 5.921875 -7.65625 C 6.484375 -7.382812 6.882812 -7.046875 7.125 -6.640625 C 7.1875 -6.554688 7.21875 -6.488281 7.21875 -6.4375 C 7.21875 -6.375 7.1875 -6.320312 7.125 -6.28125 L 6.046875 -5.765625 C 6.015625 -5.742188 5.972656 -5.734375 5.921875 -5.734375 C 5.835938 -5.734375 5.765625 -5.769531 5.703125 -5.84375 Z M 5.703125 -5.84375 "/></g></g></g><g fill="#ffffff" fill-opacity="1"><g transform="translate(97.61381, 29.936927)"><g><path d="M 4.140625 -6.328125 C 4.035156 -6.328125 3.984375 -6.265625 3.984375 -6.140625 L 3.984375 -2.546875 C 3.984375 -2.210938 4.0625 -1.972656 4.21875 -1.828125 C 4.382812 -1.679688 4.640625 -1.609375 4.984375 -1.609375 L 5.796875 -1.609375 C 5.859375 -1.609375 5.910156 -1.585938 5.953125 -1.546875 C 5.992188 -1.503906 6.015625 -1.441406 6.015625 -1.359375 L 6 -0.453125 C 6 -0.253906 5.890625 -0.132812 5.671875 -0.09375 C 5.253906 -0.03125 4.660156 0 3.890625 0 C 3.191406 0 2.648438 -0.160156 2.265625 -0.484375 C 1.878906 -0.816406 1.6875 -1.296875 1.6875 -1.921875 L 1.6875 -6.109375 C 1.6875 -6.253906 1.625 -6.328125 1.5 -6.328125 L 0.578125 -6.328125 C 0.390625 -6.328125 0.296875 -6.410156 0.296875 -6.578125 L 0.296875 -7.6875 C 0.296875 -7.832031 0.382812 -7.90625 0.5625 -7.90625 L 1.59375 -7.90625 C 1.675781 -7.90625 1.726562 -7.960938 1.75 -8.078125 L 1.953125 -10.34375 C 1.972656 -10.507812 2.046875 -10.59375 2.171875 -10.59375 L 3.8125 -10.59375 C 3.875 -10.59375 3.925781 -10.566406 3.96875 -10.515625 C 4.019531 -10.472656 4.046875 -10.40625 4.046875 -10.3125 L 4.046875 -8.078125 C 4.046875 -7.972656 4.09375 -7.921875 4.1875 -7.921875 L 5.765625 -7.921875 C 5.941406 -7.921875 6.03125 -7.84375 6.03125 -7.6875 L 6.03125 -6.578125 C 6.03125 -6.410156 5.929688 -6.328125 5.734375 -6.328125 Z M 4.140625 -6.328125 "/></g></g></g><g clip-path="url(#350fcb2fa1)"><path fill="#00aa44" d="M 17.265625 1.5 C 17.171875 1.476562 13.84375 2.074219 8.902344 2.996094 C 2.308594 4.226562 0.65625 4.550781 0.507812 4.65625 C 0.40625 4.726562 0.269531 4.894531 0.203125 5.027344 C 0.078125 5.265625 0.078125 5.433594 0.078125 16.398438 C 0.078125 27.363281 0.078125 27.535156 0.203125 27.769531 C 0.449219 28.253906 0 28.148438 8.777344 29.792969 C 13.21875 30.625 16.9375 31.304688 17.039062 31.308594 C 17.320312 31.316406 17.71875 31.109375 17.890625 30.875 C 18.039062 30.667969 18.039062 30.644531 18.058594 29.003906 L 18.078125 27.339844 L 31.421875 27.308594 L 31.640625 27.140625 C 32.101562 26.789062 32.066406 27.695312 32.066406 16.398438 C 32.066406 5.105469 32.101562 6.007812 31.640625 5.660156 L 31.421875 5.492188 L 24.746094 5.476562 L 18.070312 5.457031 L 18.070312 3.859375 C 18.070312 2.417969 18.058594 2.234375 17.957031 2.039062 C 17.832031 1.808594 17.519531 1.566406 17.265625 1.5 Z M 18.070312 7.449219 L 30.066406 7.449219 L 30.066406 25.351562 L 18.070312 25.351562 L 18.070312 23.359375 L 19.671875 23.359375 C 21.460938 23.359375 21.5625 23.339844 21.871094 22.9375 C 22.109375 22.625 22.109375 22.109375 21.871094 21.796875 C 21.5625 21.390625 21.460938 21.371094 19.671875 21.371094 L 18.070312 21.371094 L 18.070312 19.382812 L 19.671875 19.382812 C 21.460938 19.382812 21.5625 19.363281 21.871094 18.960938 C 22.109375 18.644531 22.109375 18.128906 21.871094 17.816406 C 21.5625 17.414062 21.460938 17.394531 19.671875 17.394531 L 18.070312 17.394531 L 18.070312 15.40625 L 19.671875 15.40625 C 21.460938 15.40625 21.5625 15.386719 21.871094 14.980469 C 22.007812 14.804688 22.039062 14.695312 22.039062 14.410156 C 22.039062 14.125 22.007812 14.019531 21.871094 13.839844 C 21.5625 13.433594 21.460938 13.414062 19.671875 13.414062 L 18.070312 13.414062 L 18.070312 11.425781 L 19.671875 11.425781 C 21.460938 11.425781 21.5625 11.40625 21.871094 11.003906 C 22.109375 10.691406 22.109375 10.175781 21.871094 9.863281 C 21.5625 9.457031 21.460938 9.4375 19.671875 9.4375 L 18.070312 9.4375 Z M 26.070312 9.4375 C 24.71875 9.4375 24.566406 9.472656 24.269531 9.863281 C 24.027344 10.175781 24.027344 10.691406 24.269531 11.003906 C 24.359375 11.121094 24.527344 11.265625 24.644531 11.324219 C 24.8125 11.40625 25.070312 11.425781 26.058594 11.425781 C 27.417969 11.425781 27.570312 11.390625 27.867188 11.003906 C 28.003906 10.824219 28.035156 10.71875 28.035156 10.433594 C 28.035156 10.144531 28.003906 10.039062 27.867188 9.863281 C 27.570312 9.472656 27.417969 9.4375 26.070312 9.4375 Z M 13.386719 10.871094 C 13.402344 10.867188 13.410156 10.871094 13.417969 10.871094 C 13.507812 10.886719 13.597656 10.953125 13.636719 11.03125 C 13.652344 11.0625 13.792969 11.554688 13.945312 12.121094 C 14.253906 13.277344 14.253906 13.253906 14.109375 13.398438 C 14.035156 13.46875 14.011719 13.480469 13.921875 13.480469 C 13.796875 13.480469 13.6875 13.429688 13.628906 13.351562 C 13.605469 13.316406 13.515625 13.03125 13.429688 12.710938 C 13.34375 12.390625 13.265625 12.121094 13.257812 12.109375 C 13.25 12.101562 13.195312 12.175781 13.132812 12.273438 C 12.359375 13.53125 11.039062 14.847656 9.582031 15.8125 C 9.105469 16.128906 8.691406 16.367188 8.148438 16.636719 C 6.789062 17.3125 5.46875 17.691406 4.089844 17.808594 C 3.722656 17.839844 3.34375 17.835938 3.261719 17.796875 C 3.101562 17.730469 3.03125 17.476562 3.136719 17.339844 C 3.242188 17.199219 3.261719 17.195312 3.714844 17.175781 C 5.179688 17.121094 6.671875 16.691406 8.152344 15.910156 C 9.886719 14.996094 11.46875 13.605469 12.449219 12.140625 C 12.664062 11.8125 12.726562 11.707031 12.691406 11.707031 C 12.675781 11.707031 12.386719 11.777344 12.054688 11.867188 C 11.375 12.050781 11.277344 12.0625 11.171875 11.972656 C 10.984375 11.816406 11 11.558594 11.203125 11.445312 C 11.238281 11.421875 11.734375 11.285156 12.304688 11.132812 C 13.007812 10.945312 13.289062 10.878906 13.386719 10.871094 Z M 26.070312 13.414062 C 24.71875 13.414062 24.566406 13.453125 24.269531 13.839844 C 24.027344 14.152344 24.027344 14.667969 24.269531 14.980469 C 24.359375 15.101562 24.527344 15.246094 24.644531 15.300781 C 24.8125 15.382812 25.070312 15.402344 26.058594 15.402344 C 27.417969 15.40625 27.570312 15.371094 27.867188 14.980469 C 28.003906 14.804688 28.035156 14.695312 28.035156 14.410156 C 28.035156 14.125 28.003906 14.019531 27.867188 13.839844 C 27.570312 13.453125 27.417969 13.414062 26.070312 13.414062 Z M 12.554688 14.5625 C 13.230469 14.5625 13.273438 14.566406 13.359375 14.605469 C 13.425781 14.640625 13.464844 14.675781 13.496094 14.742188 C 13.542969 14.835938 13.542969 14.847656 13.542969 18.0625 L 13.542969 21.292969 L 13.742188 21.292969 C 13.996094 21.292969 14.105469 21.335938 14.171875 21.472656 C 14.226562 21.589844 14.226562 21.644531 14.171875 21.757812 C 14.140625 21.828125 14.101562 21.863281 14.035156 21.894531 L 13.941406 21.941406 L 8.648438 21.941406 C 3.378906 21.941406 3.351562 21.941406 3.261719 21.898438 C 3.160156 21.847656 3.082031 21.722656 3.082031 21.617188 C 3.082031 21.515625 3.160156 21.390625 3.253906 21.335938 C 3.320312 21.300781 3.371094 21.292969 3.546875 21.292969 L 3.753906 21.292969 L 3.753906 20.121094 C 3.753906 18.96875 3.753906 18.949219 3.800781 18.867188 C 3.824219 18.824219 3.882812 18.765625 3.929688 18.742188 C 4.007812 18.695312 4.039062 18.695312 4.734375 18.695312 C 5.4375 18.695312 5.457031 18.695312 5.539062 18.742188 C 5.59375 18.773438 5.640625 18.820312 5.667969 18.878906 C 5.710938 18.964844 5.710938 19.011719 5.710938 20.128906 L 5.710938 21.292969 L 6.363281 21.292969 L 6.363281 19.730469 C 6.363281 18.183594 6.363281 18.171875 6.410156 18.089844 C 6.4375 18.042969 6.492188 17.988281 6.539062 17.960938 C 6.617188 17.917969 6.648438 17.917969 7.34375 17.917969 C 8.046875 17.917969 8.066406 17.917969 8.152344 17.964844 C 8.203125 17.992188 8.25 18.042969 8.277344 18.101562 C 8.320312 18.1875 8.320312 18.234375 8.320312 19.742188 L 8.320312 21.292969 L 8.972656 21.292969 L 8.972656 19.136719 C 8.972656 16.980469 8.972656 16.980469 9.019531 16.898438 C 9.046875 16.855469 9.105469 16.796875 9.148438 16.773438 C 9.226562 16.726562 9.257812 16.726562 9.945312 16.726562 C 10.621094 16.726562 10.664062 16.726562 10.75 16.769531 C 10.816406 16.804688 10.855469 16.839844 10.886719 16.90625 C 10.929688 17 10.933594 17.023438 10.933594 19.144531 L 10.933594 21.292969 L 11.585938 21.292969 L 11.585938 14.816406 L 11.628906 14.734375 C 11.65625 14.691406 11.714844 14.632812 11.757812 14.609375 C 11.835938 14.5625 11.867188 14.5625 12.554688 14.5625 Z M 26.070312 17.394531 C 24.71875 17.394531 24.566406 17.429688 24.269531 17.816406 C 24.027344 18.128906 24.027344 18.644531 24.269531 18.957031 C 24.359375 19.078125 24.527344 19.222656 24.644531 19.277344 C 24.8125 19.363281 25.070312 19.378906 26.058594 19.382812 C 27.417969 19.382812 27.570312 19.347656 27.867188 18.960938 C 28.003906 18.78125 28.035156 18.675781 28.035156 18.386719 C 28.035156 18.101562 28.003906 17.996094 27.867188 17.816406 C 27.570312 17.429688 27.417969 17.394531 26.070312 17.394531 Z M 26.070312 21.371094 C 24.71875 21.371094 24.566406 21.40625 24.269531 21.796875 C 24.027344 22.109375 24.027344 22.625 24.269531 22.9375 C 24.359375 23.054688 24.527344 23.199219 24.644531 23.257812 C 24.8125 23.339844 25.070312 23.359375 26.058594 23.359375 C 27.417969 23.359375 27.570312 23.324219 27.867188 22.9375 C 28.003906 22.757812 28.035156 22.652344 28.035156 22.367188 C 28.035156 22.082031 28.003906 21.972656 27.867188 21.796875 C 27.570312 21.40625 27.417969 21.371094 26.070312 21.371094 Z M 26.070312 21.371094 " fill-opacity="1" fill-rule="nonzero"/></g><g clip-path="url(#eb4be450f2)"><path fill="#008033" d="M 16.554688 1.605469 C 15.324219 1.8125 12.5625 2.3125 8.902344 2.996094 C 2.308594 4.226562 0.65625 4.550781 0.507812 4.65625 C 0.40625 4.726562 0.269531 4.894531 0.203125 5.027344 C 0.078125 5.265625 0.078125 5.433594 0.078125 16.398438 C 0.078125 27.363281 0.078125 27.535156 0.203125 27.769531 C 0.289062 27.941406 0.296875 28.039062 0.65625 28.167969 C 0.699219 27.953125 0.746094 27.734375 0.792969 27.519531 C 0.84375 27.277344 0.898438 27.035156 0.957031 26.796875 C 1.011719 26.554688 1.070312 26.316406 1.128906 26.082031 C 1.191406 25.84375 1.25 25.609375 1.316406 25.375 C 1.378906 25.144531 1.441406 24.910156 1.507812 24.679688 C 1.578125 24.449219 1.644531 24.222656 1.714844 23.996094 C 1.785156 23.769531 1.855469 23.542969 1.929688 23.316406 C 2.003906 23.09375 2.078125 22.871094 2.15625 22.652344 C 2.230469 22.429688 2.308594 22.210938 2.390625 21.992188 C 2.46875 21.773438 2.550781 21.558594 2.632812 21.339844 C 2.714844 21.125 2.800781 20.914062 2.886719 20.699219 C 2.972656 20.488281 3.058594 20.277344 3.148438 20.066406 C 3.234375 19.855469 3.328125 19.648438 3.417969 19.441406 C 3.507812 19.234375 3.601562 19.027344 3.695312 18.824219 C 3.792969 18.617188 3.886719 18.414062 3.984375 18.214844 C 4.050781 18.074219 4.121094 17.9375 4.1875 17.796875 C 4.15625 17.800781 4.125 17.804688 4.089844 17.808594 C 3.722656 17.839844 3.34375 17.835938 3.261719 17.796875 C 3.101562 17.730469 3.03125 17.476562 3.136719 17.339844 C 3.242188 17.199219 3.261719 17.195312 3.714844 17.175781 C 3.988281 17.167969 4.261719 17.144531 4.539062 17.105469 C 4.554688 17.078125 4.570312 17.046875 4.585938 17.015625 C 4.6875 16.820312 4.789062 16.625 4.894531 16.429688 C 5 16.234375 5.105469 16.039062 5.214844 15.847656 C 5.324219 15.65625 5.429688 15.464844 5.542969 15.273438 C 5.652344 15.082031 5.761719 14.894531 5.875 14.707031 C 5.988281 14.519531 6.101562 14.332031 6.214844 14.144531 C 6.332031 13.960938 6.445312 13.777344 6.5625 13.59375 C 6.679688 13.40625 6.796875 13.226562 6.917969 13.042969 C 7.035156 12.863281 7.15625 12.679688 7.277344 12.5 C 7.398438 12.320312 7.523438 12.144531 7.644531 11.964844 C 7.769531 11.785156 7.890625 11.609375 8.019531 11.433594 C 8.144531 11.257812 8.269531 11.082031 8.394531 10.910156 C 8.523438 10.734375 8.652344 10.5625 8.78125 10.386719 C 8.910156 10.214844 9.039062 10.042969 9.171875 9.871094 C 9.300781 9.703125 9.433594 9.53125 9.566406 9.363281 C 9.699219 9.191406 9.832031 9.023438 9.964844 8.855469 C 10.101562 8.6875 10.234375 8.523438 10.371094 8.355469 C 10.507812 8.1875 10.644531 8.023438 10.78125 7.859375 C 10.917969 7.695312 11.054688 7.53125 11.195312 7.367188 C 11.335938 7.203125 11.472656 7.039062 11.613281 6.878906 C 11.894531 6.554688 12.175781 6.230469 12.464844 5.910156 C 12.75 5.589844 13.035156 5.273438 13.328125 4.957031 C 13.617188 4.644531 13.910156 4.328125 14.203125 4.019531 C 14.5 3.707031 14.796875 3.398438 15.09375 3.089844 C 15.390625 2.78125 15.691406 2.472656 15.992188 2.167969 C 16.179688 1.980469 16.367188 1.792969 16.554688 1.605469 Z M 16.554688 1.605469 " fill-opacity="1" fill-rule="nonzero"/></g><path fill="#005522" d="M 0.0898438 7.425781 C 0.078125 9.007812 0.078125 11.660156 0.078125 16.398438 C 0.078125 27.363281 0.078125 27.535156 0.203125 27.769531 C 0.449219 28.253906 0 28.148438 8.777344 29.792969 C 11.433594 30.289062 13.714844 30.710938 15.238281 30.988281 C 14.972656 30.765625 14.710938 30.542969 14.445312 30.320312 C 14.207031 30.121094 13.96875 29.917969 13.730469 29.714844 C 13.492188 29.515625 13.253906 29.3125 13.015625 29.105469 C 12.78125 28.902344 12.542969 28.695312 12.304688 28.488281 C 12.070312 28.28125 11.835938 28.070312 11.601562 27.859375 C 11.363281 27.648438 11.128906 27.429688 10.898438 27.214844 C 10.78125 27.105469 10.664062 26.996094 10.550781 26.882812 C 10.433594 26.773438 10.316406 26.660156 10.203125 26.550781 C 10.085938 26.4375 9.972656 26.324219 9.859375 26.210938 C 9.742188 26.09375 9.628906 25.980469 9.515625 25.863281 C 9.402344 25.746094 9.285156 25.628906 9.171875 25.511719 C 9.058594 25.390625 8.949219 25.273438 8.835938 25.152344 C 8.722656 25.03125 8.609375 24.90625 8.5 24.785156 C 8.386719 24.660156 8.277344 24.535156 8.164062 24.410156 C 8.054688 24.285156 7.945312 24.15625 7.835938 24.027344 C 7.726562 23.898438 7.617188 23.765625 7.507812 23.636719 C 7.398438 23.503906 7.289062 23.371094 7.183594 23.234375 C 7.074219 23.101562 6.96875 22.964844 6.859375 22.824219 C 6.753906 22.6875 6.648438 22.546875 6.542969 22.40625 C 6.4375 22.261719 6.332031 22.121094 6.226562 21.976562 C 6.21875 21.964844 6.210938 21.953125 6.203125 21.941406 C 3.5 21.9375 3.332031 21.933594 3.261719 21.898438 C 3.160156 21.847656 3.082031 21.722656 3.082031 21.617188 C 3.082031 21.515625 3.160156 21.390625 3.253906 21.335938 C 3.320312 21.300781 3.371094 21.292969 3.546875 21.292969 L 3.753906 21.292969 L 3.753906 20.121094 C 3.753906 18.96875 3.753906 18.949219 3.800781 18.867188 C 3.824219 18.824219 3.882812 18.765625 3.929688 18.742188 C 3.972656 18.714844 4.019531 18.703125 4.167969 18.699219 C 4.15625 18.679688 4.144531 18.660156 4.132812 18.636719 C 4.039062 18.464844 3.945312 18.289062 3.851562 18.109375 C 3.800781 18.015625 3.753906 17.921875 3.703125 17.824219 C 3.492188 17.828125 3.316406 17.820312 3.261719 17.796875 C 3.101562 17.730469 3.03125 17.476562 3.136719 17.339844 C 3.207031 17.246094 3.242188 17.214844 3.390625 17.195312 C 3.363281 17.132812 3.332031 17.074219 3.300781 17.007812 C 3.210938 16.820312 3.121094 16.628906 3.035156 16.4375 C 2.945312 16.242188 2.859375 16.046875 2.773438 15.847656 C 2.6875 15.648438 2.601562 15.449219 2.515625 15.246094 C 2.429688 15.039062 2.347656 14.835938 2.265625 14.625 C 2.183594 14.414062 2.101562 14.203125 2.019531 13.988281 C 1.9375 13.773438 1.859375 13.554688 1.78125 13.332031 C 1.699219 13.113281 1.621094 12.886719 1.546875 12.660156 C 1.46875 12.433594 1.394531 12.203125 1.316406 11.96875 C 1.242188 11.738281 1.167969 11.5 1.097656 11.261719 C 1.023438 11.019531 0.953125 10.777344 0.882812 10.53125 C 0.8125 10.285156 0.742188 10.039062 0.671875 9.785156 C 0.605469 9.53125 0.539062 9.277344 0.472656 9.019531 C 0.40625 8.757812 0.339844 8.496094 0.277344 8.230469 C 0.210938 7.964844 0.152344 7.699219 0.0898438 7.425781 Z M 5.710938 21.234375 L 5.710938 21.292969 L 5.75 21.292969 C 5.738281 21.273438 5.722656 21.253906 5.710938 21.234375 Z M 5.710938 21.234375 " fill-opacity="1" fill-rule="nonzero"/><g fill="#000000" fill-opacity="0.4"><g transform="translate(33.897513, 15.564459)"><g><path d="M 1.046875 -10.78125 C 1.046875 -10.976562 1.125 -11.078125 1.28125 -11.078125 L 8.796875 -11.078125 C 8.953125 -11.078125 9.03125 -10.988281 9.03125 -10.8125 L 9.015625 -9.46875 C 9.015625 -9.257812 8.910156 -9.15625 8.703125 -9.15625 L 3.9375 -9.15625 C 3.75 -9.15625 3.65625 -9.078125 3.65625 -8.921875 L 3.65625 -6.765625 C 3.65625 -6.585938 3.726562 -6.5 3.875 -6.5 L 7.046875 -6.5 C 7.210938 -6.5 7.296875 -6.421875 7.296875 -6.265625 L 7.296875 -4.828125 C 7.296875 -4.691406 7.21875 -4.625 7.0625 -4.625 L 3.859375 -4.625 C 3.722656 -4.625 3.65625 -4.566406 3.65625 -4.453125 L 3.65625 -2.109375 C 3.65625 -2.035156 3.664062 -1.984375 3.6875 -1.953125 C 3.71875 -1.921875 3.757812 -1.90625 3.8125 -1.90625 L 8.921875 -1.90625 C 9.097656 -1.90625 9.1875 -1.832031 9.1875 -1.6875 L 9.1875 -0.265625 C 9.1875 -0.0859375 9.085938 0 8.890625 0 L 1.375 0 C 1.25 0 1.160156 -0.0234375 1.109375 -0.078125 C 1.066406 -0.128906 1.046875 -0.207031 1.046875 -0.3125 Z M 1.046875 -10.78125 "/></g></g></g><g fill="#000000" fill-opacity="0.4"><g transform="translate(43.654098, 15.564459)"><g><path d="M 8.375 -0.5 C 8.488281 -0.34375 8.546875 -0.226562 8.546875 -0.15625 C 8.546875 -0.0507812 8.453125 0 8.265625 0 L 6.359375 0 C 6.117188 0 5.945312 -0.078125 5.84375 -0.234375 L 4.3125 -2.40625 C 4.226562 -2.53125 4.171875 -2.59375 4.140625 -2.59375 C 4.097656 -2.59375 4.035156 -2.535156 3.953125 -2.421875 L 2.390625 -0.234375 C 2.285156 -0.078125 2.117188 0 1.890625 0 L 0.671875 0 C 0.429688 0 0.3125 -0.0664062 0.3125 -0.203125 C 0.3125 -0.316406 0.375 -0.445312 0.5 -0.59375 L 2.9375 -3.75 C 3 -3.832031 3.03125 -3.898438 3.03125 -3.953125 C 3.03125 -4.023438 2.992188 -4.109375 2.921875 -4.203125 L 0.5 -7.484375 C 0.46875 -7.535156 0.453125 -7.597656 0.453125 -7.671875 C 0.453125 -7.734375 0.472656 -7.785156 0.515625 -7.828125 C 0.566406 -7.878906 0.640625 -7.90625 0.734375 -7.90625 L 2.546875 -7.90625 C 2.679688 -7.90625 2.78125 -7.882812 2.84375 -7.84375 C 2.90625 -7.8125 2.96875 -7.753906 3.03125 -7.671875 L 4.421875 -5.71875 C 4.460938 -5.632812 4.503906 -5.59375 4.546875 -5.59375 C 4.578125 -5.59375 4.617188 -5.632812 4.671875 -5.71875 L 5.984375 -7.671875 C 6.046875 -7.753906 6.109375 -7.8125 6.171875 -7.84375 C 6.234375 -7.882812 6.332031 -7.90625 6.46875 -7.90625 L 7.8125 -7.90625 C 7.988281 -7.90625 8.078125 -7.859375 8.078125 -7.765625 C 8.078125 -7.710938 8.046875 -7.644531 7.984375 -7.5625 L 5.765625 -4.546875 C 5.703125 -4.484375 5.671875 -4.414062 5.671875 -4.34375 C 5.671875 -4.289062 5.707031 -4.210938 5.78125 -4.109375 Z M 8.375 -0.5 "/></g></g></g><g fill="#000000" fill-opacity="0.4"><g transform="translate(52.470832, 15.564459)"><g><path d="M 4.4375 -8.0625 C 5.320312 -8.0625 6.050781 -7.835938 6.625 -7.390625 C 7.207031 -6.953125 7.597656 -6.421875 7.796875 -5.796875 C 7.816406 -5.710938 7.828125 -5.660156 7.828125 -5.640625 C 7.828125 -5.546875 7.757812 -5.488281 7.625 -5.46875 L 6.0625 -5.328125 L 6.015625 -5.328125 C 5.921875 -5.328125 5.859375 -5.378906 5.828125 -5.484375 C 5.648438 -5.847656 5.46875 -6.113281 5.28125 -6.28125 C 5.101562 -6.457031 4.84375 -6.546875 4.5 -6.546875 C 3.96875 -6.546875 3.550781 -6.328125 3.25 -5.890625 C 2.945312 -5.453125 2.796875 -4.804688 2.796875 -3.953125 C 2.796875 -3.078125 2.957031 -2.421875 3.28125 -1.984375 C 3.601562 -1.546875 4.050781 -1.328125 4.625 -1.328125 C 5.03125 -1.328125 5.363281 -1.429688 5.625 -1.640625 C 5.882812 -1.847656 6.140625 -2.164062 6.390625 -2.59375 C 6.421875 -2.644531 6.453125 -2.671875 6.484375 -2.671875 C 6.515625 -2.679688 6.566406 -2.679688 6.640625 -2.671875 L 7.75 -2.421875 C 7.832031 -2.410156 7.875 -2.359375 7.875 -2.265625 L 7.84375 -2.140625 C 7.644531 -1.554688 7.257812 -1.023438 6.6875 -0.546875 C 6.113281 -0.078125 5.363281 0.15625 4.4375 0.15625 C 3.664062 0.15625 2.976562 -0.015625 2.375 -0.359375 C 1.78125 -0.703125 1.3125 -1.179688 0.96875 -1.796875 C 0.632812 -2.421875 0.46875 -3.128906 0.46875 -3.921875 C 0.46875 -4.734375 0.640625 -5.453125 0.984375 -6.078125 C 1.328125 -6.703125 1.796875 -7.1875 2.390625 -7.53125 C 2.992188 -7.882812 3.675781 -8.0625 4.4375 -8.0625 Z M 4.4375 -8.0625 "/></g></g></g><g fill="#000000" fill-opacity="0.4"><g transform="translate(60.690823, 15.564459)"><g><path d="M 2.828125 -3.28125 C 2.828125 -2.726562 3.015625 -2.28125 3.390625 -1.9375 C 3.765625 -1.59375 4.234375 -1.421875 4.796875 -1.421875 C 5.148438 -1.421875 5.476562 -1.492188 5.78125 -1.640625 C 6.082031 -1.796875 6.390625 -2.054688 6.703125 -2.421875 C 6.742188 -2.460938 6.78125 -2.484375 6.8125 -2.484375 C 6.84375 -2.484375 6.894531 -2.46875 6.96875 -2.4375 L 8.046875 -1.984375 C 8.109375 -1.953125 8.140625 -1.898438 8.140625 -1.828125 C 8.140625 -1.785156 8.125 -1.738281 8.09375 -1.6875 C 7.613281 -1.007812 7.097656 -0.53125 6.546875 -0.25 C 6.003906 0.0195312 5.320312 0.15625 4.5 0.15625 C 3.738281 0.15625 3.046875 -0.0078125 2.421875 -0.34375 C 1.804688 -0.6875 1.328125 -1.160156 0.984375 -1.765625 C 0.640625 -2.367188 0.46875 -3.054688 0.46875 -3.828125 C 0.46875 -4.671875 0.644531 -5.410156 1 -6.046875 C 1.351562 -6.691406 1.835938 -7.1875 2.453125 -7.53125 C 3.066406 -7.882812 3.738281 -8.0625 4.46875 -8.0625 C 5.21875 -8.0625 5.882812 -7.894531 6.46875 -7.5625 C 7.0625 -7.226562 7.519531 -6.742188 7.84375 -6.109375 C 8.175781 -5.484375 8.34375 -4.738281 8.34375 -3.875 C 8.34375 -3.75 8.328125 -3.660156 8.296875 -3.609375 C 8.273438 -3.554688 8.207031 -3.523438 8.09375 -3.515625 L 3.015625 -3.515625 C 2.890625 -3.515625 2.828125 -3.4375 2.828125 -3.28125 Z M 5.828125 -4.78125 C 5.941406 -4.78125 6.015625 -4.789062 6.046875 -4.8125 C 6.078125 -4.832031 6.09375 -4.890625 6.09375 -4.984375 C 6.09375 -5.242188 6.03125 -5.5 5.90625 -5.75 C 5.789062 -6.007812 5.617188 -6.222656 5.390625 -6.390625 C 5.160156 -6.566406 4.878906 -6.65625 4.546875 -6.65625 C 4.054688 -6.65625 3.648438 -6.476562 3.328125 -6.125 C 3.003906 -5.78125 2.847656 -5.335938 2.859375 -4.796875 Z M 5.828125 -4.78125 "/></g></g></g><g fill="#000000" fill-opacity="0.4"><g transform="translate(69.43296, 15.564459)"><g><path d="M 3.140625 -0.359375 C 3.140625 -0.234375 3.109375 -0.140625 3.046875 -0.078125 C 2.984375 -0.0234375 2.878906 0 2.734375 0 L 1.15625 0 C 1.03125 0 0.941406 -0.0234375 0.890625 -0.078125 C 0.847656 -0.128906 0.828125 -0.207031 0.828125 -0.3125 L 0.859375 -10.78125 C 0.859375 -10.976562 0.941406 -11.078125 1.109375 -11.078125 L 2.90625 -11.078125 C 3.0625 -11.078125 3.140625 -10.984375 3.140625 -10.796875 Z M 3.140625 -0.359375 "/></g></g></g><g fill="#ffffff" fill-opacity="1"><g transform="translate(33.237703, 14.904651)"><g><path d="M 1.046875 -10.78125 C 1.046875 -10.976562 1.125 -11.078125 1.28125 -11.078125 L 8.796875 -11.078125 C 8.953125 -11.078125 9.03125 -10.988281 9.03125 -10.8125 L 9.015625 -9.46875 C 9.015625 -9.257812 8.910156 -9.15625 8.703125 -9.15625 L 3.9375 -9.15625 C 3.75 -9.15625 3.65625 -9.078125 3.65625 -8.921875 L 3.65625 -6.765625 C 3.65625 -6.585938 3.726562 -6.5 3.875 -6.5 L 7.046875 -6.5 C 7.210938 -6.5 7.296875 -6.421875 7.296875 -6.265625 L 7.296875 -4.828125 C 7.296875 -4.691406 7.21875 -4.625 7.0625 -4.625 L 3.859375 -4.625 C 3.722656 -4.625 3.65625 -4.566406 3.65625 -4.453125 L 3.65625 -2.109375 C 3.65625 -2.035156 3.664062 -1.984375 3.6875 -1.953125 C 3.71875 -1.921875 3.757812 -1.90625 3.8125 -1.90625 L 8.921875 -1.90625 C 9.097656 -1.90625 9.1875 -1.832031 9.1875 -1.6875 L 9.1875 -0.265625 C 9.1875 -0.0859375 9.085938 0 8.890625 0 L 1.375 0 C 1.25 0 1.160156 -0.0234375 1.109375 -0.078125 C 1.066406 -0.128906 1.046875 -0.207031 1.046875 -0.3125 Z M 1.046875 -10.78125 "/></g></g></g><g fill="#ffffff" fill-opacity="1"><g transform="translate(42.994288, 14.904651)"><g><path d="M 8.375 -0.5 C 8.488281 -0.34375 8.546875 -0.226562 8.546875 -0.15625 C 8.546875 -0.0507812 8.453125 0 8.265625 0 L 6.359375 0 C 6.117188 0 5.945312 -0.078125 5.84375 -0.234375 L 4.3125 -2.40625 C 4.226562 -2.53125 4.171875 -2.59375 4.140625 -2.59375 C 4.097656 -2.59375 4.035156 -2.535156 3.953125 -2.421875 L 2.390625 -0.234375 C 2.285156 -0.078125 2.117188 0 1.890625 0 L 0.671875 0 C 0.429688 0 0.3125 -0.0664062 0.3125 -0.203125 C 0.3125 -0.316406 0.375 -0.445312 0.5 -0.59375 L 2.9375 -3.75 C 3 -3.832031 3.03125 -3.898438 3.03125 -3.953125 C 3.03125 -4.023438 2.992188 -4.109375 2.921875 -4.203125 L 0.5 -7.484375 C 0.46875 -7.535156 0.453125 -7.597656 0.453125 -7.671875 C 0.453125 -7.734375 0.472656 -7.785156 0.515625 -7.828125 C 0.566406 -7.878906 0.640625 -7.90625 0.734375 -7.90625 L 2.546875 -7.90625 C 2.679688 -7.90625 2.78125 -7.882812 2.84375 -7.84375 C 2.90625 -7.8125 2.96875 -7.753906 3.03125 -7.671875 L 4.421875 -5.71875 C 4.460938 -5.632812 4.503906 -5.59375 4.546875 -5.59375 C 4.578125 -5.59375 4.617188 -5.632812 4.671875 -5.71875 L 5.984375 -7.671875 C 6.046875 -7.753906 6.109375 -7.8125 6.171875 -7.84375 C 6.234375 -7.882812 6.332031 -7.90625 6.46875 -7.90625 L 7.8125 -7.90625 C 7.988281 -7.90625 8.078125 -7.859375 8.078125 -7.765625 C 8.078125 -7.710938 8.046875 -7.644531 7.984375 -7.5625 L 5.765625 -4.546875 C 5.703125 -4.484375 5.671875 -4.414062 5.671875 -4.34375 C 5.671875 -4.289062 5.707031 -4.210938 5.78125 -4.109375 Z M 8.375 -0.5 "/></g></g></g><g fill="#ffffff" fill-opacity="1"><g transform="translate(51.811022, 14.904651)"><g><path d="M 4.4375 -8.0625 C 5.320312 -8.0625 6.050781 -7.835938 6.625 -7.390625 C 7.207031 -6.953125 7.597656 -6.421875 7.796875 -5.796875 C 7.816406 -5.710938 7.828125 -5.660156 7.828125 -5.640625 C 7.828125 -5.546875 7.757812 -5.488281 7.625 -5.46875 L 6.0625 -5.328125 L 6.015625 -5.328125 C 5.921875 -5.328125 5.859375 -5.378906 5.828125 -5.484375 C 5.648438 -5.847656 5.46875 -6.113281 5.28125 -6.28125 C 5.101562 -6.457031 4.84375 -6.546875 4.5 -6.546875 C 3.96875 -6.546875 3.550781 -6.328125 3.25 -5.890625 C 2.945312 -5.453125 2.796875 -4.804688 2.796875 -3.953125 C 2.796875 -3.078125 2.957031 -2.421875 3.28125 -1.984375 C 3.601562 -1.546875 4.050781 -1.328125 4.625 -1.328125 C 5.03125 -1.328125 5.363281 -1.429688 5.625 -1.640625 C 5.882812 -1.847656 6.140625 -2.164062 6.390625 -2.59375 C 6.421875 -2.644531 6.453125 -2.671875 6.484375 -2.671875 C 6.515625 -2.679688 6.566406 -2.679688 6.640625 -2.671875 L 7.75 -2.421875 C 7.832031 -2.410156 7.875 -2.359375 7.875 -2.265625 L 7.84375 -2.140625 C 7.644531 -1.554688 7.257812 -1.023438 6.6875 -0.546875 C 6.113281 -0.078125 5.363281 0.15625 4.4375 0.15625 C 3.664062 0.15625 2.976562 -0.015625 2.375 -0.359375 C 1.78125 -0.703125 1.3125 -1.179688 0.96875 -1.796875 C 0.632812 -2.421875 0.46875 -3.128906 0.46875 -3.921875 C 0.46875 -4.734375 0.640625 -5.453125 0.984375 -6.078125 C 1.328125 -6.703125 1.796875 -7.1875 2.390625 -7.53125 C 2.992188 -7.882812 3.675781 -8.0625 4.4375 -8.0625 Z M 4.4375 -8.0625 "/></g></g></g><g fill="#ffffff" fill-opacity="1"><g transform="translate(60.031014, 14.904651)"><g><path d="M 2.828125 -3.28125 C 2.828125 -2.726562 3.015625 -2.28125 3.390625 -1.9375 C 3.765625 -1.59375 4.234375 -1.421875 4.796875 -1.421875 C 5.148438 -1.421875 5.476562 -1.492188 5.78125 -1.640625 C 6.082031 -1.796875 6.390625 -2.054688 6.703125 -2.421875 C 6.742188 -2.460938 6.78125 -2.484375 6.8125 -2.484375 C 6.84375 -2.484375 6.894531 -2.46875 6.96875 -2.4375 L 8.046875 -1.984375 C 8.109375 -1.953125 8.140625 -1.898438 8.140625 -1.828125 C 8.140625 -1.785156 8.125 -1.738281 8.09375 -1.6875 C 7.613281 -1.007812 7.097656 -0.53125 6.546875 -0.25 C 6.003906 0.0195312 5.320312 0.15625 4.5 0.15625 C 3.738281 0.15625 3.046875 -0.0078125 2.421875 -0.34375 C 1.804688 -0.6875 1.328125 -1.160156 0.984375 -1.765625 C 0.640625 -2.367188 0.46875 -3.054688 0.46875 -3.828125 C 0.46875 -4.671875 0.644531 -5.410156 1 -6.046875 C 1.351562 -6.691406 1.835938 -7.1875 2.453125 -7.53125 C 3.066406 -7.882812 3.738281 -8.0625 4.46875 -8.0625 C 5.21875 -8.0625 5.882812 -7.894531 6.46875 -7.5625 C 7.0625 -7.226562 7.519531 -6.742188 7.84375 -6.109375 C 8.175781 -5.484375 8.34375 -4.738281 8.34375 -3.875 C 8.34375 -3.75 8.328125 -3.660156 8.296875 -3.609375 C 8.273438 -3.554688 8.207031 -3.523438 8.09375 -3.515625 L 3.015625 -3.515625 C 2.890625 -3.515625 2.828125 -3.4375 2.828125 -3.28125 Z M 5.828125 -4.78125 C 5.941406 -4.78125 6.015625 -4.789062 6.046875 -4.8125 C 6.078125 -4.832031 6.09375 -4.890625 6.09375 -4.984375 C 6.09375 -5.242188 6.03125 -5.5 5.90625 -5.75 C 5.789062 -6.007812 5.617188 -6.222656 5.390625 -6.390625 C 5.160156 -6.566406 4.878906 -6.65625 4.546875 -6.65625 C 4.054688 -6.65625 3.648438 -6.476562 3.328125 -6.125 C 3.003906 -5.78125 2.847656 -5.335938 2.859375 -4.796875 Z M 5.828125 -4.78125 "/></g></g></g><g fill="#ffffff" fill-opacity="1"><g transform="translate(68.773151, 14.904651)"><g><path d="M 3.140625 -0.359375 C 3.140625 -0.234375 3.109375 -0.140625 3.046875 -0.078125 C 2.984375 -0.0234375 2.878906 0 2.734375 0 L 1.15625 0 C 1.03125 0 0.941406 -0.0234375 0.890625 -0.078125 C 0.847656 -0.128906 0.828125 -0.207031 0.828125 -0.3125 L 0.859375 -10.78125 C 0.859375 -10.976562 0.941406 -11.078125 1.109375 -11.078125 L 2.90625 -11.078125 C 3.0625 -11.078125 3.140625 -10.984375 3.140625 -10.796875 Z M 3.140625 -0.359375 "/></g></g></g></svg>