<svg xmlns="http://www.w3.org/2000/svg" xmlns:xlink="http://www.w3.org/1999/xlink" width="500" zoomAndPan="magnify" viewBox="0 0 375 374.999991" height="500" preserveAspectRatio="xMidYMid meet" version="1.0"><defs><clipPath id="39115c34f2"><path d="M 6 18 L 368.949219 18 L 368.949219 357.5 L 6 357.5 Z M 6 18 " clip-rule="nonzero"/></clipPath></defs><g clip-path="url(#39115c34f2)"><path fill="#00aa44" d="M 201.214844 18.125 C 200.152344 17.855469 162.484375 24.621094 106.613281 35.113281 C 32.074219 49.109375 13.367188 52.835938 11.699219 54.027344 C 10.558594 54.839844 8.996094 56.738281 8.226562 58.246094 C 6.851562 60.945312 6.832031 62.867188 6.832031 187.644531 C 6.832031 312.421875 6.851562 314.339844 8.226562 317.042969 C 11.023438 322.523438 5.964844 321.324219 105.210938 340.03125 C 155.441406 349.496094 197.492188 357.269531 198.65625 357.300781 C 201.804688 357.382812 206.339844 355.042969 208.265625 352.339844 C 209.941406 349.992188 209.964844 349.722656 210.171875 331.050781 L 210.378906 312.140625 L 285.828125 311.953125 L 361.273438 311.769531 L 363.765625 309.863281 C 368.984375 305.878906 368.582031 316.164062 368.582031 187.644531 C 368.582031 59.125 368.984375 69.410156 363.765625 65.425781 L 361.273438 63.519531 L 285.792969 63.332031 L 210.316406 63.148438 L 210.316406 44.933594 C 210.316406 28.566406 210.183594 26.46875 209.007812 24.253906 C 207.605469 21.613281 204.085938 18.84375 201.214844 18.125 Z M 210.316406 85.796875 L 345.972656 85.796875 L 345.972656 289.488281 L 210.316406 289.488281 L 210.316406 266.855469 L 228.402344 266.855469 C 248.632812 266.855469 249.773438 266.636719 253.277344 262.039062 C 255.996094 258.472656 255.996094 252.609375 253.277344 249.042969 C 249.773438 244.445312 248.632812 244.226562 228.402344 244.226562 L 210.316406 244.226562 L 210.316406 221.59375 L 228.402344 221.59375 C 248.632812 221.59375 249.773438 221.371094 253.277344 216.773438 C 255.996094 213.207031 255.996094 207.347656 253.277344 203.777344 C 249.773438 199.179688 248.632812 198.960938 228.402344 198.960938 L 210.316406 198.960938 L 210.316406 176.328125 L 228.402344 176.328125 C 248.632812 176.328125 249.773438 176.105469 253.277344 171.507812 C 254.824219 169.476562 255.179688 168.265625 255.179688 165.011719 C 255.179688 161.757812 254.824219 160.546875 253.277344 158.515625 C 249.773438 153.917969 248.632812 153.695312 228.402344 153.695312 L 210.316406 153.695312 L 210.316406 131.0625 L 228.402344 131.0625 C 248.632812 131.0625 249.773438 130.839844 253.277344 126.246094 C 255.996094 122.675781 255.996094 116.816406 253.277344 113.25 C 249.773438 108.652344 248.632812 108.429688 228.402344 108.429688 L 210.316406 108.429688 Z M 300.753906 108.429688 C 285.5 108.429688 283.757812 108.84375 280.398438 113.25 C 277.6875 116.808594 277.683594 122.675781 280.390625 126.230469 C 281.429688 127.597656 283.339844 129.238281 284.628906 129.875 C 286.550781 130.820312 289.4375 131.035156 300.644531 131.046875 C 316.019531 131.066406 317.742188 130.660156 321.105469 126.246094 C 322.652344 124.210938 323.007812 123 323.007812 119.746094 C 323.007812 116.492188 322.652344 115.28125 321.105469 113.25 C 317.75 108.84375 316.003906 108.429688 300.753906 108.429688 Z M 157.335938 124.726562 C 157.496094 124.714844 157.613281 124.71875 157.695312 124.734375 C 158.714844 124.925781 159.710938 125.664062 160.171875 126.566406 C 160.355469 126.925781 161.917969 132.503906 163.640625 138.960938 C 167.152344 152.121094 167.121094 151.863281 165.492188 153.492188 C 164.675781 154.3125 164.414062 154.425781 163.398438 154.425781 C 161.992188 154.425781 160.722656 153.863281 160.074219 152.949219 C 159.804688 152.574219 158.796875 149.296875 157.824219 145.652344 C 156.855469 142.015625 155.984375 138.953125 155.894531 138.847656 C 155.804688 138.742188 155.167969 139.574219 154.484375 140.695312 C 145.726562 154.992188 130.789062 169.964844 114.320312 180.957031 C 108.898438 184.574219 104.226562 187.273438 98.089844 190.339844 C 82.71875 198.015625 67.792969 202.351562 52.21875 203.664062 C 48.035156 204.015625 43.777344 203.972656 42.847656 203.566406 C 41.035156 202.777344 40.246094 199.910156 41.410156 198.347656 C 42.59375 196.761719 42.824219 196.699219 47.972656 196.492188 C 64.507812 195.835938 81.386719 190.988281 98.128906 182.089844 C 117.734375 171.671875 135.628906 155.859375 146.71875 139.160156 C 149.175781 135.460938 149.859375 134.238281 149.460938 134.238281 C 149.277344 134.242188 146.042969 135.070312 142.269531 136.085938 C 134.589844 138.152344 133.476562 138.285156 132.289062 137.285156 C 130.1875 135.511719 130.363281 132.5625 132.648438 131.257812 C 133.054688 131.027344 138.664062 129.429688 145.113281 127.707031 C 153.042969 125.589844 156.222656 124.808594 157.335938 124.726562 Z M 300.753906 153.695312 C 285.5 153.695312 283.757812 154.109375 280.398438 158.515625 C 277.6875 162.074219 277.683594 167.941406 280.390625 171.496094 C 281.429688 172.863281 283.339844 174.5 284.628906 175.136719 C 286.550781 176.085938 289.4375 176.296875 300.644531 176.3125 C 316.019531 176.328125 317.742188 175.925781 321.105469 171.507812 C 322.652344 169.476562 323.007812 168.265625 323.007812 165.011719 C 323.007812 161.757812 322.652344 160.546875 321.105469 158.515625 C 317.75 154.109375 316.003906 153.695312 300.753906 153.695312 Z M 147.917969 166.738281 C 155.558594 166.738281 156.039062 166.765625 157.03125 167.246094 C 157.789062 167.613281 158.214844 168.039062 158.582031 168.800781 C 159.089844 169.84375 159.089844 169.996094 159.089844 206.578125 L 159.089844 243.3125 L 161.347656 243.3125 C 164.242188 243.3125 165.460938 243.828125 166.207031 245.375 C 166.84375 246.691406 166.84375 247.320312 166.207031 248.636719 C 165.839844 249.398438 165.414062 249.824219 164.65625 250.191406 L 163.609375 250.699219 L 103.730469 250.699219 C 44.175781 250.699219 43.851562 250.695312 42.851562 250.199219 C 41.699219 249.628906 40.78125 248.214844 40.78125 247.003906 C 40.78125 245.871094 41.667969 244.441406 42.75 243.832031 C 43.515625 243.402344 44.089844 243.3125 46.042969 243.3125 L 48.40625 243.3125 L 48.40625 229.988281 C 48.40625 216.875 48.414062 216.648438 48.925781 215.738281 C 49.214844 215.226562 49.863281 214.574219 50.375 214.289062 C 51.265625 213.785156 51.605469 213.765625 59.472656 213.765625 C 67.421875 213.765625 67.671875 213.78125 68.601562 214.304688 C 69.210938 214.644531 69.738281 215.210938 70.050781 215.859375 C 70.523438 216.835938 70.542969 217.378906 70.542969 230.09375 L 70.542969 243.3125 L 77.921875 243.3125 L 77.921875 225.554688 C 77.921875 207.925781 77.925781 207.792969 78.441406 206.871094 C 78.730469 206.363281 79.378906 205.710938 79.890625 205.421875 C 80.78125 204.921875 81.121094 204.902344 88.988281 204.902344 C 96.9375 204.902344 97.191406 204.917969 98.117188 205.441406 C 98.726562 205.78125 99.253906 206.347656 99.566406 206.996094 C 100.042969 207.984375 100.058594 208.515625 100.058594 225.660156 L 100.058594 243.3125 L 107.4375 243.3125 L 107.4375 218.785156 C 107.4375 194.257812 107.4375 194.257812 107.957031 193.332031 C 108.246094 192.820312 108.898438 192.167969 109.40625 191.882812 C 110.296875 191.378906 110.640625 191.359375 118.402344 191.359375 C 126.042969 191.359375 126.523438 191.386719 127.515625 191.867188 C 128.273438 192.234375 128.699219 192.660156 129.066406 193.421875 C 129.570312 194.457031 129.574219 194.734375 129.574219 218.890625 L 129.574219 243.3125 L 136.953125 243.3125 L 136.953125 169.636719 L 137.472656 168.710938 C 137.761719 168.199219 138.414062 167.546875 138.921875 167.257812 C 139.8125 166.757812 140.15625 166.738281 147.917969 166.738281 Z M 300.753906 198.960938 C 285.5 198.960938 283.757812 199.375 280.398438 203.777344 C 277.6875 207.339844 277.683594 213.207031 280.390625 216.761719 C 281.429688 218.128906 283.339844 219.765625 284.628906 220.402344 C 286.550781 221.351562 289.4375 221.5625 300.644531 221.578125 C 316.019531 221.59375 317.742188 221.191406 321.105469 216.773438 C 322.652344 214.742188 323.007812 213.53125 323.007812 210.277344 C 323.007812 207.023438 322.652344 205.808594 321.105469 203.777344 C 317.75 199.375 316.003906 198.960938 300.753906 198.960938 Z M 300.753906 244.226562 C 285.5 244.226562 283.757812 244.636719 280.398438 249.042969 C 277.6875 252.605469 277.683594 258.472656 280.390625 262.027344 C 281.429688 263.390625 283.339844 265.03125 284.628906 265.667969 C 286.550781 266.617188 289.4375 266.828125 300.644531 266.839844 C 316.019531 266.859375 317.742188 266.453125 321.105469 262.039062 C 322.652344 260.007812 323.007812 258.792969 323.007812 255.539062 C 323.007812 252.289062 322.652344 251.074219 321.105469 249.042969 C 317.75 244.636719 316.003906 244.226562 300.753906 244.226562 Z M 300.753906 244.226562 " fill-opacity="1" fill-rule="nonzero"/></g><path fill="#008033" d="M 193.160156 19.3125 C 179.242188 21.648438 148.023438 27.335938 106.613281 35.113281 C 32.074219 49.109375 13.367188 52.835938 11.699219 54.027344 C 10.558594 54.839844 8.996094 56.738281 8.226562 58.246094 C 6.851562 60.945312 6.832031 62.867188 6.832031 187.644531 C 6.832031 312.421875 6.851562 314.339844 8.226562 317.042969 C 9.222656 318.996094 9.296875 320.109375 13.382812 321.570312 C 13.875 319.09375 14.378906 316.628906 14.90625 314.179688 C 15.503906 311.414062 16.121094 308.667969 16.757812 305.9375 C 17.394531 303.210938 18.050781 300.5 18.726562 297.808594 C 19.402344 295.117188 20.097656 292.445312 20.816406 289.789062 C 21.53125 287.132812 22.265625 284.496094 23.019531 281.878906 C 23.773438 279.257812 24.546875 276.65625 25.339844 274.074219 C 26.132812 271.488281 26.945312 268.921875 27.773438 266.371094 C 28.601562 263.824219 29.449219 261.292969 30.316406 258.777344 C 31.179688 256.257812 32.0625 253.761719 32.964844 251.277344 C 33.867188 248.792969 34.785156 246.328125 35.722656 243.878906 C 36.65625 241.425781 37.609375 238.992188 38.582031 236.574219 C 39.550781 234.15625 40.539062 231.753906 41.542969 229.367188 C 42.546875 226.976562 43.566406 224.605469 44.601562 222.25 C 45.636719 219.890625 46.691406 217.550781 47.757812 215.222656 C 48.824219 212.894531 49.910156 210.582031 51.007812 208.285156 C 51.765625 206.699219 52.535156 205.128906 53.304688 203.558594 C 52.941406 203.59375 52.582031 203.632812 52.21875 203.664062 C 48.035156 204.015625 43.777344 203.972656 42.847656 203.566406 C 41.035156 202.777344 40.246094 199.910156 41.410156 198.347656 C 42.59375 196.765625 42.824219 196.699219 47.972656 196.492188 C 51.058594 196.371094 54.15625 196.101562 57.261719 195.6875 C 57.4375 195.347656 57.613281 195.003906 57.789062 194.660156 C 58.949219 192.417969 60.121094 190.191406 61.3125 187.976562 C 62.5 185.757812 63.703125 183.558594 64.917969 181.367188 C 66.136719 179.179688 67.367188 177.003906 68.609375 174.839844 C 69.855469 172.675781 71.113281 170.523438 72.386719 168.386719 C 73.65625 166.246094 74.941406 164.121094 76.238281 162.007812 C 77.535156 159.890625 78.84375 157.789062 80.167969 155.699219 C 81.492188 153.605469 82.828125 151.527344 84.171875 149.460938 C 85.519531 147.390625 86.878906 145.335938 88.25 143.289062 C 89.621094 141.242188 91.007812 139.210938 92.398438 137.183594 C 93.792969 135.160156 95.199219 133.148438 96.617188 131.144531 C 98.035156 129.140625 99.460938 127.148438 100.902344 125.164062 C 102.339844 123.179688 103.789062 121.207031 105.25 119.242188 C 106.707031 117.28125 108.175781 115.324219 109.65625 113.378906 C 111.136719 111.4375 112.625 109.5 114.125 107.574219 C 115.625 105.644531 117.132812 103.726562 118.652344 101.820312 C 120.167969 99.910156 121.695312 98.007812 123.234375 96.117188 C 124.769531 94.222656 126.3125 92.339844 127.867188 90.464844 C 129.421875 88.585938 130.980469 86.71875 132.550781 84.855469 C 134.121094 82.996094 135.699219 81.140625 137.285156 79.296875 C 140.457031 75.601562 143.660156 71.9375 146.890625 68.300781 C 150.121094 64.664062 153.378906 61.050781 156.664062 57.460938 C 159.945312 53.875 163.257812 50.308594 166.585938 46.765625 C 169.917969 43.21875 173.269531 39.695312 176.644531 36.191406 C 180.015625 32.683594 183.40625 29.195312 186.816406 25.722656 C 188.921875 23.578125 191.042969 21.445312 193.160156 19.3125 Z M 193.160156 19.3125 " fill-opacity="1" fill-rule="nonzero"/><path fill="#005522" d="M 6.957031 85.539062 C 6.84375 103.550781 6.832031 133.726562 6.832031 187.644531 C 6.832031 312.421875 6.851562 314.339844 8.226562 317.042969 C 11.023438 322.523438 5.964844 321.324219 105.210938 340.03125 C 135.230469 345.6875 161.066406 350.5 178.261719 353.65625 C 175.277344 351.125 172.300781 348.585938 169.316406 346.058594 C 166.621094 343.769531 163.921875 341.476562 161.226562 339.175781 C 158.535156 336.875 155.84375 334.566406 153.15625 332.238281 C 150.472656 329.914062 147.792969 327.570312 145.117188 325.207031 C 142.445312 322.84375 139.78125 320.453125 137.125 318.039062 C 134.46875 315.621094 131.824219 313.175781 129.1875 310.695312 C 127.871094 309.457031 126.558594 308.207031 125.246094 306.945312 C 123.9375 305.6875 122.628906 304.417969 121.324219 303.140625 C 120.019531 301.859375 118.71875 300.570312 117.421875 299.269531 C 116.125 297.964844 114.832031 296.652344 113.542969 295.328125 C 112.253906 294.003906 110.96875 292.667969 109.691406 291.316406 C 108.410156 289.964844 107.132812 288.601562 105.863281 287.226562 C 104.589844 285.847656 103.324219 284.457031 102.0625 283.050781 C 100.800781 281.644531 99.542969 280.226562 98.289062 278.789062 C 97.039062 277.351562 95.792969 275.902344 94.550781 274.433594 C 93.308594 272.964844 92.074219 271.480469 90.84375 269.980469 C 89.613281 268.480469 88.386719 266.960938 87.167969 265.425781 C 85.949219 263.886719 84.738281 262.332031 83.53125 260.761719 C 82.324219 259.1875 81.125 257.59375 79.933594 255.984375 C 78.738281 254.371094 77.550781 252.742188 76.371094 251.089844 C 76.277344 250.957031 76.183594 250.824219 76.089844 250.691406 C 45.519531 250.675781 43.648438 250.59375 42.851562 250.199219 C 41.699219 249.628906 40.78125 248.214844 40.78125 247.003906 C 40.78125 245.871094 41.667969 244.441406 42.75 243.832031 C 43.515625 243.402344 44.089844 243.3125 46.042969 243.3125 L 48.40625 243.3125 L 48.40625 229.988281 C 48.40625 216.875 48.414062 216.648438 48.925781 215.738281 C 49.214844 215.226562 49.863281 214.574219 50.375 214.289062 C 50.886719 214 51.386719 213.878906 53.066406 213.820312 C 52.9375 213.585938 52.808594 213.355469 52.683594 213.121094 C 51.609375 211.140625 50.546875 209.136719 49.496094 207.105469 C 48.9375 206.035156 48.386719 204.957031 47.839844 203.875 C 45.429688 203.917969 43.4375 203.824219 42.847656 203.566406 C 41.035156 202.777344 40.246094 199.910156 41.410156 198.347656 C 42.203125 197.289062 42.601562 196.910156 44.304688 196.714844 C 43.960938 196.007812 43.621094 195.300781 43.28125 194.585938 C 42.265625 192.445312 41.257812 190.273438 40.261719 188.074219 C 39.261719 185.871094 38.277344 183.640625 37.300781 181.382812 C 36.320312 179.121094 35.355469 176.832031 34.398438 174.507812 C 33.441406 172.1875 32.492188 169.832031 31.558594 167.449219 C 30.621094 165.0625 29.695312 162.644531 28.78125 160.195312 C 27.867188 157.746094 26.964844 155.265625 26.074219 152.746094 C 25.179688 150.230469 24.296875 147.683594 23.429688 145.097656 C 22.558594 142.511719 21.703125 139.894531 20.855469 137.242188 C 20.007812 134.585938 19.171875 131.898438 18.351562 129.171875 C 17.527344 126.449219 16.71875 123.6875 15.917969 120.886719 C 15.121094 118.089844 14.335938 115.253906 13.5625 112.382812 C 12.789062 109.511719 12.027344 106.597656 11.277344 103.652344 C 10.53125 100.703125 9.792969 97.714844 9.074219 94.6875 C 8.355469 91.675781 7.648438 88.628906 6.957031 85.539062 Z M 70.542969 242.671875 L 70.542969 243.3125 L 70.96875 243.3125 C 70.828125 243.101562 70.683594 242.886719 70.542969 242.671875 Z M 70.542969 242.671875 " fill-opacity="1" fill-rule="nonzero"/></svg>