<svg xmlns="http://www.w3.org/2000/svg" xmlns:xlink="http://www.w3.org/1999/xlink" width="122" zoomAndPan="magnify" viewBox="0 0 91.5 32.999998" height="44" preserveAspectRatio="xMidYMid meet" version="1.0"><defs><g/><clipPath id="9ac7e44097"><path d="M 86 19 L 91.003906 19 L 91.003906 28 L 86 28 Z M 86 19 " clip-rule="nonzero"/></clipPath><clipPath id="6fa069285e"><path d="M 0 1.480469 L 32.074219 1.480469 L 32.074219 31.316406 L 0 31.316406 Z M 0 1.480469 " clip-rule="nonzero"/></clipPath><clipPath id="51257422ae"><path d="M 0 1.480469 L 17 1.480469 L 17 29 L 0 29 Z M 0 1.480469 " clip-rule="nonzero"/></clipPath></defs><g fill="#000000" fill-opacity="0.4"><g transform="translate(34.94484, 27.768753)"><g><path d="M 5.90625 -6.765625 C 5.707031 -6.992188 5.472656 -7.171875 5.203125 -7.296875 C 4.929688 -7.429688 4.582031 -7.5 4.15625 -7.5 C 3.675781 -7.5 3.304688 -7.410156 3.046875 -7.234375 C 2.796875 -7.054688 2.671875 -6.828125 2.671875 -6.546875 C 2.671875 -6.128906 2.992188 -5.828125 3.640625 -5.640625 L 5.515625 -5.109375 C 6.222656 -4.898438 6.75 -4.582031 7.09375 -4.15625 C 7.445312 -3.726562 7.625 -3.210938 7.625 -2.609375 C 7.625 -2.054688 7.476562 -1.570312 7.1875 -1.15625 C 6.90625 -0.75 6.492188 -0.429688 5.953125 -0.203125 C 5.421875 0.015625 4.789062 0.125 4.0625 0.125 C 3.25 0.125 2.515625 -0.0078125 1.859375 -0.28125 C 1.210938 -0.5625 0.738281 -0.941406 0.4375 -1.421875 C 0.40625 -1.472656 0.390625 -1.523438 0.390625 -1.578125 C 0.390625 -1.640625 0.429688 -1.707031 0.515625 -1.78125 L 1.4375 -2.40625 C 1.507812 -2.457031 1.578125 -2.484375 1.640625 -2.484375 C 1.710938 -2.484375 1.773438 -2.453125 1.828125 -2.390625 C 2.117188 -2.003906 2.414062 -1.726562 2.71875 -1.5625 C 3.019531 -1.40625 3.421875 -1.328125 3.921875 -1.328125 C 4.453125 -1.328125 4.867188 -1.410156 5.171875 -1.578125 C 5.472656 -1.753906 5.625 -2.007812 5.625 -2.34375 C 5.625 -2.550781 5.546875 -2.726562 5.390625 -2.875 C 5.242188 -3.03125 4.992188 -3.164062 4.640625 -3.28125 L 2.84375 -3.796875 C 2.15625 -3.984375 1.625 -4.300781 1.25 -4.75 C 0.875 -5.195312 0.6875 -5.707031 0.6875 -6.28125 C 0.6875 -6.789062 0.828125 -7.25 1.109375 -7.65625 C 1.390625 -8.0625 1.789062 -8.378906 2.3125 -8.609375 C 2.832031 -8.847656 3.425781 -8.96875 4.09375 -8.96875 C 4.769531 -8.96875 5.382812 -8.851562 5.9375 -8.625 C 6.488281 -8.394531 6.914062 -8.09375 7.21875 -7.71875 C 7.257812 -7.65625 7.28125 -7.597656 7.28125 -7.546875 C 7.28125 -7.492188 7.257812 -7.453125 7.21875 -7.421875 L 6.21875 -6.671875 C 6.164062 -6.640625 6.128906 -6.625 6.109375 -6.625 C 6.066406 -6.625 6 -6.671875 5.90625 -6.765625 Z M 5.90625 -6.765625 "/></g></g></g><g fill="#000000" fill-opacity="0.4"><g transform="translate(43.016755, 27.768753)"><g><path d="M 2.234375 -6.3125 C 2.335938 -6.3125 2.40625 -6.296875 2.4375 -6.265625 C 2.476562 -6.234375 2.5 -6.171875 2.5 -6.078125 L 2.5 -5.71875 C 2.5 -5.664062 2.515625 -5.640625 2.546875 -5.640625 C 2.578125 -5.640625 2.617188 -5.660156 2.671875 -5.703125 C 2.921875 -5.929688 3.171875 -6.109375 3.421875 -6.234375 C 3.679688 -6.367188 4.007812 -6.4375 4.40625 -6.4375 C 5.132812 -6.4375 5.722656 -6.160156 6.171875 -5.609375 C 6.628906 -5.066406 6.859375 -4.265625 6.859375 -3.203125 C 6.859375 -2.109375 6.625 -1.28125 6.15625 -0.71875 C 5.6875 -0.15625 5.070312 0.125 4.3125 0.125 C 3.6875 0.125 3.15625 -0.078125 2.71875 -0.484375 C 2.632812 -0.546875 2.578125 -0.578125 2.546875 -0.578125 C 2.503906 -0.578125 2.484375 -0.523438 2.484375 -0.421875 L 2.484375 1.765625 C 2.484375 1.898438 2.425781 1.96875 2.3125 1.96875 L 0.84375 1.96875 C 0.789062 1.96875 0.742188 1.945312 0.703125 1.90625 C 0.671875 1.875 0.65625 1.820312 0.65625 1.75 L 0.65625 -6.0625 C 0.65625 -6.15625 0.675781 -6.21875 0.71875 -6.25 C 0.757812 -6.289062 0.832031 -6.3125 0.9375 -6.3125 Z M 2.484375 -1.640625 C 2.660156 -1.441406 2.835938 -1.289062 3.015625 -1.1875 C 3.203125 -1.082031 3.410156 -1.03125 3.640625 -1.03125 C 4.546875 -1.03125 5 -1.769531 5 -3.25 C 5 -3.976562 4.878906 -4.5 4.640625 -4.8125 C 4.410156 -5.125 4.085938 -5.28125 3.671875 -5.28125 C 3.347656 -5.28125 3.066406 -5.179688 2.828125 -4.984375 C 2.597656 -4.796875 2.484375 -4.578125 2.484375 -4.328125 Z M 2.484375 -1.640625 "/></g></g></g><g fill="#000000" fill-opacity="0.4"><g transform="translate(50.277904, 27.768753)"><g><path d="M 2.265625 -2.625 C 2.265625 -2.175781 2.410156 -1.8125 2.703125 -1.53125 C 3.003906 -1.257812 3.378906 -1.125 3.828125 -1.125 C 4.109375 -1.125 4.367188 -1.1875 4.609375 -1.3125 C 4.859375 -1.4375 5.109375 -1.644531 5.359375 -1.9375 C 5.390625 -1.96875 5.421875 -1.984375 5.453125 -1.984375 C 5.472656 -1.984375 5.507812 -1.96875 5.5625 -1.9375 L 6.421875 -1.578125 C 6.484375 -1.554688 6.515625 -1.519531 6.515625 -1.46875 C 6.515625 -1.425781 6.5 -1.382812 6.46875 -1.34375 C 6.082031 -0.800781 5.671875 -0.421875 5.234375 -0.203125 C 4.796875 0.015625 4.25 0.125 3.59375 0.125 C 2.988281 0.125 2.4375 -0.0078125 1.9375 -0.28125 C 1.445312 -0.550781 1.0625 -0.925781 0.78125 -1.40625 C 0.507812 -1.894531 0.375 -2.445312 0.375 -3.0625 C 0.375 -3.726562 0.515625 -4.316406 0.796875 -4.828125 C 1.085938 -5.347656 1.472656 -5.742188 1.953125 -6.015625 C 2.441406 -6.296875 2.976562 -6.4375 3.5625 -6.4375 C 4.164062 -6.4375 4.703125 -6.300781 5.171875 -6.03125 C 5.640625 -5.769531 6.003906 -5.390625 6.265625 -4.890625 C 6.535156 -4.390625 6.671875 -3.789062 6.671875 -3.09375 C 6.671875 -2.988281 6.660156 -2.914062 6.640625 -2.875 C 6.617188 -2.84375 6.5625 -2.820312 6.46875 -2.8125 L 2.40625 -2.8125 C 2.3125 -2.8125 2.265625 -2.75 2.265625 -2.625 Z M 4.65625 -3.8125 C 4.75 -3.8125 4.804688 -3.820312 4.828125 -3.84375 C 4.847656 -3.863281 4.859375 -3.910156 4.859375 -3.984375 C 4.859375 -4.191406 4.8125 -4.394531 4.71875 -4.59375 C 4.625 -4.800781 4.484375 -4.972656 4.296875 -5.109375 C 4.117188 -5.242188 3.898438 -5.3125 3.640625 -5.3125 C 3.242188 -5.3125 2.914062 -5.171875 2.65625 -4.890625 C 2.40625 -4.617188 2.28125 -4.265625 2.28125 -3.828125 Z M 4.65625 -3.8125 "/></g></g></g><g fill="#000000" fill-opacity="0.4"><g transform="translate(57.264816, 27.768753)"><g><path d="M 3.546875 -6.4375 C 4.253906 -6.4375 4.835938 -6.257812 5.296875 -5.90625 C 5.765625 -5.550781 6.078125 -5.125 6.234375 -4.625 C 6.253906 -4.5625 6.265625 -4.519531 6.265625 -4.5 C 6.265625 -4.4375 6.207031 -4.394531 6.09375 -4.375 L 4.84375 -4.25 L 4.796875 -4.25 C 4.734375 -4.25 4.6875 -4.296875 4.65625 -4.390625 C 4.519531 -4.671875 4.375 -4.878906 4.21875 -5.015625 C 4.070312 -5.160156 3.863281 -5.234375 3.59375 -5.234375 C 3.164062 -5.234375 2.832031 -5.054688 2.59375 -4.703125 C 2.351562 -4.359375 2.234375 -3.84375 2.234375 -3.15625 C 2.234375 -2.457031 2.359375 -1.929688 2.609375 -1.578125 C 2.867188 -1.234375 3.234375 -1.0625 3.703125 -1.0625 C 4.023438 -1.0625 4.285156 -1.144531 4.484375 -1.3125 C 4.691406 -1.476562 4.898438 -1.734375 5.109375 -2.078125 C 5.128906 -2.117188 5.148438 -2.140625 5.171875 -2.140625 C 5.203125 -2.140625 5.25 -2.140625 5.3125 -2.140625 L 6.1875 -1.9375 C 6.257812 -1.925781 6.296875 -1.882812 6.296875 -1.8125 L 6.265625 -1.703125 C 6.109375 -1.242188 5.800781 -0.820312 5.34375 -0.4375 C 4.882812 -0.0625 4.285156 0.125 3.546875 0.125 C 2.929688 0.125 2.382812 -0.0078125 1.90625 -0.28125 C 1.425781 -0.5625 1.050781 -0.945312 0.78125 -1.4375 C 0.507812 -1.9375 0.375 -2.503906 0.375 -3.140625 C 0.375 -3.773438 0.507812 -4.34375 0.78125 -4.84375 C 1.050781 -5.351562 1.425781 -5.742188 1.90625 -6.015625 C 2.394531 -6.296875 2.941406 -6.4375 3.546875 -6.4375 Z M 3.546875 -6.4375 "/></g></g></g><g fill="#000000" fill-opacity="0.4"><g transform="translate(63.834424, 27.768753)"><g><path d="M 2.515625 -7.375 C 2.515625 -7.175781 2.40625 -7.078125 2.1875 -7.078125 L 0.90625 -7.078125 C 0.8125 -7.078125 0.742188 -7.097656 0.703125 -7.140625 C 0.660156 -7.191406 0.640625 -7.265625 0.640625 -7.359375 L 0.640625 -8.609375 C 0.640625 -8.765625 0.707031 -8.84375 0.84375 -8.84375 L 2.328125 -8.84375 C 2.378906 -8.84375 2.421875 -8.820312 2.453125 -8.78125 C 2.492188 -8.75 2.515625 -8.695312 2.515625 -8.625 Z M 2.484375 -0.28125 C 2.484375 -0.175781 2.457031 -0.101562 2.40625 -0.0625 C 2.363281 -0.0195312 2.285156 0 2.171875 0 L 0.921875 0 C 0.828125 0 0.757812 -0.0195312 0.71875 -0.0625 C 0.675781 -0.101562 0.65625 -0.164062 0.65625 -0.25 L 0.65625 -6.09375 C 0.65625 -6.238281 0.722656 -6.3125 0.859375 -6.3125 L 2.3125 -6.3125 C 2.425781 -6.3125 2.484375 -6.242188 2.484375 -6.109375 Z M 2.484375 -0.28125 "/></g></g></g><g fill="#000000" fill-opacity="0.4"><g transform="translate(66.994038, 27.768753)"><g><path d="M 4.140625 -0.609375 C 3.609375 -0.117188 2.984375 0.125 2.265625 0.125 C 1.671875 0.125 1.195312 -0.0351562 0.84375 -0.359375 C 0.5 -0.679688 0.328125 -1.101562 0.328125 -1.625 C 0.328125 -2.289062 0.628906 -2.828125 1.234375 -3.234375 C 1.847656 -3.640625 2.691406 -3.851562 3.765625 -3.875 L 4.203125 -3.90625 C 4.242188 -3.90625 4.28125 -3.921875 4.3125 -3.953125 C 4.351562 -3.984375 4.375 -4.023438 4.375 -4.078125 L 4.375 -4.328125 C 4.375 -4.640625 4.285156 -4.878906 4.109375 -5.046875 C 3.929688 -5.210938 3.679688 -5.296875 3.359375 -5.296875 C 2.804688 -5.296875 2.394531 -5.054688 2.125 -4.578125 C 2.09375 -4.492188 2.039062 -4.453125 1.96875 -4.453125 C 1.925781 -4.453125 1.890625 -4.457031 1.859375 -4.46875 L 0.671875 -4.75 C 0.597656 -4.757812 0.5625 -4.800781 0.5625 -4.875 C 0.5625 -4.925781 0.578125 -4.988281 0.609375 -5.0625 C 0.796875 -5.519531 1.132812 -5.863281 1.625 -6.09375 C 2.113281 -6.320312 2.722656 -6.4375 3.453125 -6.4375 C 4.390625 -6.4375 5.066406 -6.265625 5.484375 -5.921875 C 5.910156 -5.578125 6.125 -5.085938 6.125 -4.453125 L 6.125 -0.265625 C 6.125 -0.171875 6.109375 -0.101562 6.078125 -0.0625 C 6.046875 -0.0195312 5.988281 0 5.90625 0 L 4.671875 0 C 4.585938 0 4.53125 -0.0234375 4.5 -0.078125 C 4.46875 -0.140625 4.441406 -0.222656 4.421875 -0.328125 L 4.40625 -0.59375 C 4.40625 -0.664062 4.375 -0.703125 4.3125 -0.703125 C 4.28125 -0.703125 4.222656 -0.671875 4.140625 -0.609375 Z M 4.375 -2.8125 C 4.375 -2.882812 4.359375 -2.9375 4.328125 -2.96875 C 4.304688 -3 4.265625 -3.015625 4.203125 -3.015625 L 3.859375 -3 C 3.398438 -2.96875 2.992188 -2.851562 2.640625 -2.65625 C 2.285156 -2.46875 2.109375 -2.203125 2.109375 -1.859375 C 2.109375 -1.617188 2.191406 -1.425781 2.359375 -1.28125 C 2.523438 -1.144531 2.753906 -1.078125 3.046875 -1.078125 C 3.410156 -1.078125 3.722656 -1.1875 3.984375 -1.40625 C 4.242188 -1.613281 4.375 -1.820312 4.375 -2.03125 Z M 4.375 -2.8125 "/></g></g></g><g fill="#000000" fill-opacity="0.4"><g transform="translate(73.706727, 27.768753)"><g><path d="M 2.5 -0.28125 C 2.5 -0.175781 2.472656 -0.101562 2.421875 -0.0625 C 2.378906 -0.0195312 2.300781 0 2.1875 0 L 0.921875 0 C 0.828125 0 0.757812 -0.0195312 0.71875 -0.0625 C 0.675781 -0.101562 0.65625 -0.164062 0.65625 -0.25 L 0.6875 -8.625 C 0.6875 -8.769531 0.75 -8.84375 0.875 -8.84375 L 2.328125 -8.84375 C 2.441406 -8.84375 2.5 -8.769531 2.5 -8.625 Z M 2.5 -0.28125 "/></g></g></g><g fill="#000000" fill-opacity="0.4"><g transform="translate(76.878258, 27.768753)"><g><path d="M 2.515625 -7.375 C 2.515625 -7.175781 2.40625 -7.078125 2.1875 -7.078125 L 0.90625 -7.078125 C 0.8125 -7.078125 0.742188 -7.097656 0.703125 -7.140625 C 0.660156 -7.191406 0.640625 -7.265625 0.640625 -7.359375 L 0.640625 -8.609375 C 0.640625 -8.765625 0.707031 -8.84375 0.84375 -8.84375 L 2.328125 -8.84375 C 2.378906 -8.84375 2.421875 -8.820312 2.453125 -8.78125 C 2.492188 -8.75 2.515625 -8.695312 2.515625 -8.625 Z M 2.484375 -0.28125 C 2.484375 -0.175781 2.457031 -0.101562 2.40625 -0.0625 C 2.363281 -0.0195312 2.285156 0 2.171875 0 L 0.921875 0 C 0.828125 0 0.757812 -0.0195312 0.71875 -0.0625 C 0.675781 -0.101562 0.65625 -0.164062 0.65625 -0.25 L 0.65625 -6.09375 C 0.65625 -6.238281 0.722656 -6.3125 0.859375 -6.3125 L 2.3125 -6.3125 C 2.425781 -6.3125 2.484375 -6.242188 2.484375 -6.109375 Z M 2.484375 -0.28125 "/></g></g></g><g fill="#000000" fill-opacity="0.4"><g transform="translate(80.037872, 27.768753)"><g><path d="M 4.546875 -4.671875 C 4.222656 -5.097656 3.757812 -5.3125 3.15625 -5.3125 C 2.851562 -5.3125 2.601562 -5.253906 2.40625 -5.140625 C 2.207031 -5.023438 2.109375 -4.867188 2.109375 -4.671875 C 2.109375 -4.554688 2.15625 -4.453125 2.25 -4.359375 C 2.34375 -4.273438 2.519531 -4.203125 2.78125 -4.140625 L 4.15625 -3.796875 C 4.78125 -3.648438 5.238281 -3.410156 5.53125 -3.078125 C 5.820312 -2.753906 5.96875 -2.367188 5.96875 -1.921875 C 5.96875 -1.296875 5.707031 -0.796875 5.1875 -0.421875 C 4.664062 -0.0546875 3.976562 0.125 3.125 0.125 C 2.4375 0.125 1.84375 0.00390625 1.34375 -0.234375 C 0.84375 -0.484375 0.488281 -0.800781 0.28125 -1.1875 C 0.238281 -1.25 0.21875 -1.300781 0.21875 -1.34375 C 0.21875 -1.40625 0.25 -1.445312 0.3125 -1.46875 L 1.125 -1.890625 C 1.1875 -1.921875 1.238281 -1.9375 1.28125 -1.9375 C 1.332031 -1.9375 1.378906 -1.914062 1.421875 -1.875 C 1.597656 -1.625 1.8125 -1.425781 2.0625 -1.28125 C 2.3125 -1.132812 2.640625 -1.0625 3.046875 -1.0625 C 3.421875 -1.0625 3.722656 -1.113281 3.953125 -1.21875 C 4.191406 -1.332031 4.3125 -1.5 4.3125 -1.71875 C 4.3125 -1.863281 4.25 -1.984375 4.125 -2.078125 C 4.007812 -2.171875 3.8125 -2.253906 3.53125 -2.328125 L 2.296875 -2.59375 C 1.085938 -2.851562 0.484375 -3.453125 0.484375 -4.390625 C 0.484375 -4.785156 0.59375 -5.132812 0.8125 -5.4375 C 1.03125 -5.75 1.34375 -5.992188 1.75 -6.171875 C 2.15625 -6.347656 2.632812 -6.4375 3.1875 -6.4375 C 3.757812 -6.4375 4.269531 -6.328125 4.71875 -6.109375 C 5.175781 -5.898438 5.503906 -5.632812 5.703125 -5.3125 C 5.742188 -5.238281 5.765625 -5.179688 5.765625 -5.140625 C 5.765625 -5.085938 5.738281 -5.046875 5.6875 -5.015625 L 4.828125 -4.609375 C 4.804688 -4.585938 4.773438 -4.578125 4.734375 -4.578125 C 4.660156 -4.578125 4.597656 -4.609375 4.546875 -4.671875 Z M 4.546875 -4.671875 "/></g></g></g><g clip-path="url(#9ac7e44097)"><g fill="#000000" fill-opacity="0.4"><g transform="translate(86.3571, 27.768753)"><g><path d="M 3.3125 -5.0625 C 3.226562 -5.0625 3.1875 -5.007812 3.1875 -4.90625 L 3.1875 -2.03125 C 3.1875 -1.769531 3.25 -1.578125 3.375 -1.453125 C 3.5 -1.335938 3.703125 -1.28125 3.984375 -1.28125 L 4.625 -1.28125 C 4.675781 -1.28125 4.71875 -1.265625 4.75 -1.234375 C 4.78125 -1.203125 4.796875 -1.148438 4.796875 -1.078125 L 4.796875 -0.359375 C 4.796875 -0.203125 4.707031 -0.109375 4.53125 -0.078125 C 4.195312 -0.0234375 3.722656 0 3.109375 0 C 2.554688 0 2.125 -0.128906 1.8125 -0.390625 C 1.5 -0.648438 1.34375 -1.03125 1.34375 -1.53125 L 1.34375 -4.875 C 1.34375 -5 1.289062 -5.0625 1.1875 -5.0625 L 0.46875 -5.0625 C 0.3125 -5.0625 0.234375 -5.125 0.234375 -5.25 L 0.234375 -6.140625 C 0.234375 -6.253906 0.304688 -6.3125 0.453125 -6.3125 L 1.28125 -6.3125 C 1.34375 -6.3125 1.378906 -6.359375 1.390625 -6.453125 L 1.5625 -8.265625 C 1.570312 -8.398438 1.628906 -8.46875 1.734375 -8.46875 L 3.046875 -8.46875 C 3.097656 -8.46875 3.140625 -8.445312 3.171875 -8.40625 C 3.210938 -8.363281 3.234375 -8.304688 3.234375 -8.234375 L 3.234375 -6.453125 C 3.234375 -6.367188 3.269531 -6.328125 3.34375 -6.328125 L 4.609375 -6.328125 C 4.742188 -6.328125 4.8125 -6.265625 4.8125 -6.140625 L 4.8125 -5.25 C 4.8125 -5.125 4.734375 -5.0625 4.578125 -5.0625 Z M 3.3125 -5.0625 "/></g></g></g></g><g fill="#ffffff" fill-opacity="1"><g transform="translate(34.417394, 27.241309)"><g><path d="M 5.90625 -6.765625 C 5.707031 -6.992188 5.472656 -7.171875 5.203125 -7.296875 C 4.929688 -7.429688 4.582031 -7.5 4.15625 -7.5 C 3.675781 -7.5 3.304688 -7.410156 3.046875 -7.234375 C 2.796875 -7.054688 2.671875 -6.828125 2.671875 -6.546875 C 2.671875 -6.128906 2.992188 -5.828125 3.640625 -5.640625 L 5.515625 -5.109375 C 6.222656 -4.898438 6.75 -4.582031 7.09375 -4.15625 C 7.445312 -3.726562 7.625 -3.210938 7.625 -2.609375 C 7.625 -2.054688 7.476562 -1.570312 7.1875 -1.15625 C 6.90625 -0.75 6.492188 -0.429688 5.953125 -0.203125 C 5.421875 0.015625 4.789062 0.125 4.0625 0.125 C 3.25 0.125 2.515625 -0.0078125 1.859375 -0.28125 C 1.210938 -0.5625 0.738281 -0.941406 0.4375 -1.421875 C 0.40625 -1.472656 0.390625 -1.523438 0.390625 -1.578125 C 0.390625 -1.640625 0.429688 -1.707031 0.515625 -1.78125 L 1.4375 -2.40625 C 1.507812 -2.457031 1.578125 -2.484375 1.640625 -2.484375 C 1.710938 -2.484375 1.773438 -2.453125 1.828125 -2.390625 C 2.117188 -2.003906 2.414062 -1.726562 2.71875 -1.5625 C 3.019531 -1.40625 3.421875 -1.328125 3.921875 -1.328125 C 4.453125 -1.328125 4.867188 -1.410156 5.171875 -1.578125 C 5.472656 -1.753906 5.625 -2.007812 5.625 -2.34375 C 5.625 -2.550781 5.546875 -2.726562 5.390625 -2.875 C 5.242188 -3.03125 4.992188 -3.164062 4.640625 -3.28125 L 2.84375 -3.796875 C 2.15625 -3.984375 1.625 -4.300781 1.25 -4.75 C 0.875 -5.195312 0.6875 -5.707031 0.6875 -6.28125 C 0.6875 -6.789062 0.828125 -7.25 1.109375 -7.65625 C 1.390625 -8.0625 1.789062 -8.378906 2.3125 -8.609375 C 2.832031 -8.847656 3.425781 -8.96875 4.09375 -8.96875 C 4.769531 -8.96875 5.382812 -8.851562 5.9375 -8.625 C 6.488281 -8.394531 6.914062 -8.09375 7.21875 -7.71875 C 7.257812 -7.65625 7.28125 -7.597656 7.28125 -7.546875 C 7.28125 -7.492188 7.257812 -7.453125 7.21875 -7.421875 L 6.21875 -6.671875 C 6.164062 -6.640625 6.128906 -6.625 6.109375 -6.625 C 6.066406 -6.625 6 -6.671875 5.90625 -6.765625 Z M 5.90625 -6.765625 "/></g></g></g><g fill="#ffffff" fill-opacity="1"><g transform="translate(42.489309, 27.241309)"><g><path d="M 2.234375 -6.3125 C 2.335938 -6.3125 2.40625 -6.296875 2.4375 -6.265625 C 2.476562 -6.234375 2.5 -6.171875 2.5 -6.078125 L 2.5 -5.71875 C 2.5 -5.664062 2.515625 -5.640625 2.546875 -5.640625 C 2.578125 -5.640625 2.617188 -5.660156 2.671875 -5.703125 C 2.921875 -5.929688 3.171875 -6.109375 3.421875 -6.234375 C 3.679688 -6.367188 4.007812 -6.4375 4.40625 -6.4375 C 5.132812 -6.4375 5.722656 -6.160156 6.171875 -5.609375 C 6.628906 -5.066406 6.859375 -4.265625 6.859375 -3.203125 C 6.859375 -2.109375 6.625 -1.28125 6.15625 -0.71875 C 5.6875 -0.15625 5.070312 0.125 4.3125 0.125 C 3.6875 0.125 3.15625 -0.078125 2.71875 -0.484375 C 2.632812 -0.546875 2.578125 -0.578125 2.546875 -0.578125 C 2.503906 -0.578125 2.484375 -0.523438 2.484375 -0.421875 L 2.484375 1.765625 C 2.484375 1.898438 2.425781 1.96875 2.3125 1.96875 L 0.84375 1.96875 C 0.789062 1.96875 0.742188 1.945312 0.703125 1.90625 C 0.671875 1.875 0.65625 1.820312 0.65625 1.75 L 0.65625 -6.0625 C 0.65625 -6.15625 0.675781 -6.21875 0.71875 -6.25 C 0.757812 -6.289062 0.832031 -6.3125 0.9375 -6.3125 Z M 2.484375 -1.640625 C 2.660156 -1.441406 2.835938 -1.289062 3.015625 -1.1875 C 3.203125 -1.082031 3.410156 -1.03125 3.640625 -1.03125 C 4.546875 -1.03125 5 -1.769531 5 -3.25 C 5 -3.976562 4.878906 -4.5 4.640625 -4.8125 C 4.410156 -5.125 4.085938 -5.28125 3.671875 -5.28125 C 3.347656 -5.28125 3.066406 -5.179688 2.828125 -4.984375 C 2.597656 -4.796875 2.484375 -4.578125 2.484375 -4.328125 Z M 2.484375 -1.640625 "/></g></g></g><g fill="#ffffff" fill-opacity="1"><g transform="translate(49.750457, 27.241309)"><g><path d="M 2.265625 -2.625 C 2.265625 -2.175781 2.410156 -1.8125 2.703125 -1.53125 C 3.003906 -1.257812 3.378906 -1.125 3.828125 -1.125 C 4.109375 -1.125 4.367188 -1.1875 4.609375 -1.3125 C 4.859375 -1.4375 5.109375 -1.644531 5.359375 -1.9375 C 5.390625 -1.96875 5.421875 -1.984375 5.453125 -1.984375 C 5.472656 -1.984375 5.507812 -1.96875 5.5625 -1.9375 L 6.421875 -1.578125 C 6.484375 -1.554688 6.515625 -1.519531 6.515625 -1.46875 C 6.515625 -1.425781 6.5 -1.382812 6.46875 -1.34375 C 6.082031 -0.800781 5.671875 -0.421875 5.234375 -0.203125 C 4.796875 0.015625 4.25 0.125 3.59375 0.125 C 2.988281 0.125 2.4375 -0.0078125 1.9375 -0.28125 C 1.445312 -0.550781 1.0625 -0.925781 0.78125 -1.40625 C 0.507812 -1.894531 0.375 -2.445312 0.375 -3.0625 C 0.375 -3.726562 0.515625 -4.316406 0.796875 -4.828125 C 1.085938 -5.347656 1.472656 -5.742188 1.953125 -6.015625 C 2.441406 -6.296875 2.976562 -6.4375 3.5625 -6.4375 C 4.164062 -6.4375 4.703125 -6.300781 5.171875 -6.03125 C 5.640625 -5.769531 6.003906 -5.390625 6.265625 -4.890625 C 6.535156 -4.390625 6.671875 -3.789062 6.671875 -3.09375 C 6.671875 -2.988281 6.660156 -2.914062 6.640625 -2.875 C 6.617188 -2.84375 6.5625 -2.820312 6.46875 -2.8125 L 2.40625 -2.8125 C 2.3125 -2.8125 2.265625 -2.75 2.265625 -2.625 Z M 4.65625 -3.8125 C 4.75 -3.8125 4.804688 -3.820312 4.828125 -3.84375 C 4.847656 -3.863281 4.859375 -3.910156 4.859375 -3.984375 C 4.859375 -4.191406 4.8125 -4.394531 4.71875 -4.59375 C 4.625 -4.800781 4.484375 -4.972656 4.296875 -5.109375 C 4.117188 -5.242188 3.898438 -5.3125 3.640625 -5.3125 C 3.242188 -5.3125 2.914062 -5.171875 2.65625 -4.890625 C 2.40625 -4.617188 2.28125 -4.265625 2.28125 -3.828125 Z M 4.65625 -3.8125 "/></g></g></g><g fill="#ffffff" fill-opacity="1"><g transform="translate(56.73737, 27.241309)"><g><path d="M 3.546875 -6.4375 C 4.253906 -6.4375 4.835938 -6.257812 5.296875 -5.90625 C 5.765625 -5.550781 6.078125 -5.125 6.234375 -4.625 C 6.253906 -4.5625 6.265625 -4.519531 6.265625 -4.5 C 6.265625 -4.4375 6.207031 -4.394531 6.09375 -4.375 L 4.84375 -4.25 L 4.796875 -4.25 C 4.734375 -4.25 4.6875 -4.296875 4.65625 -4.390625 C 4.519531 -4.671875 4.375 -4.878906 4.21875 -5.015625 C 4.070312 -5.160156 3.863281 -5.234375 3.59375 -5.234375 C 3.164062 -5.234375 2.832031 -5.054688 2.59375 -4.703125 C 2.351562 -4.359375 2.234375 -3.84375 2.234375 -3.15625 C 2.234375 -2.457031 2.359375 -1.929688 2.609375 -1.578125 C 2.867188 -1.234375 3.234375 -1.0625 3.703125 -1.0625 C 4.023438 -1.0625 4.285156 -1.144531 4.484375 -1.3125 C 4.691406 -1.476562 4.898438 -1.734375 5.109375 -2.078125 C 5.128906 -2.117188 5.148438 -2.140625 5.171875 -2.140625 C 5.203125 -2.140625 5.25 -2.140625 5.3125 -2.140625 L 6.1875 -1.9375 C 6.257812 -1.925781 6.296875 -1.882812 6.296875 -1.8125 L 6.265625 -1.703125 C 6.109375 -1.242188 5.800781 -0.820312 5.34375 -0.4375 C 4.882812 -0.0625 4.285156 0.125 3.546875 0.125 C 2.929688 0.125 2.382812 -0.0078125 1.90625 -0.28125 C 1.425781 -0.5625 1.050781 -0.945312 0.78125 -1.4375 C 0.507812 -1.9375 0.375 -2.503906 0.375 -3.140625 C 0.375 -3.773438 0.507812 -4.34375 0.78125 -4.84375 C 1.050781 -5.351562 1.425781 -5.742188 1.90625 -6.015625 C 2.394531 -6.296875 2.941406 -6.4375 3.546875 -6.4375 Z M 3.546875 -6.4375 "/></g></g></g><g fill="#ffffff" fill-opacity="1"><g transform="translate(63.306977, 27.241309)"><g><path d="M 2.515625 -7.375 C 2.515625 -7.175781 2.40625 -7.078125 2.1875 -7.078125 L 0.90625 -7.078125 C 0.8125 -7.078125 0.742188 -7.097656 0.703125 -7.140625 C 0.660156 -7.191406 0.640625 -7.265625 0.640625 -7.359375 L 0.640625 -8.609375 C 0.640625 -8.765625 0.707031 -8.84375 0.84375 -8.84375 L 2.328125 -8.84375 C 2.378906 -8.84375 2.421875 -8.820312 2.453125 -8.78125 C 2.492188 -8.75 2.515625 -8.695312 2.515625 -8.625 Z M 2.484375 -0.28125 C 2.484375 -0.175781 2.457031 -0.101562 2.40625 -0.0625 C 2.363281 -0.0195312 2.285156 0 2.171875 0 L 0.921875 0 C 0.828125 0 0.757812 -0.0195312 0.71875 -0.0625 C 0.675781 -0.101562 0.65625 -0.164062 0.65625 -0.25 L 0.65625 -6.09375 C 0.65625 -6.238281 0.722656 -6.3125 0.859375 -6.3125 L 2.3125 -6.3125 C 2.425781 -6.3125 2.484375 -6.242188 2.484375 -6.109375 Z M 2.484375 -0.28125 "/></g></g></g><g fill="#ffffff" fill-opacity="1"><g transform="translate(66.466591, 27.241309)"><g><path d="M 4.140625 -0.609375 C 3.609375 -0.117188 2.984375 0.125 2.265625 0.125 C 1.671875 0.125 1.195312 -0.0351562 0.84375 -0.359375 C 0.5 -0.679688 0.328125 -1.101562 0.328125 -1.625 C 0.328125 -2.289062 0.628906 -2.828125 1.234375 -3.234375 C 1.847656 -3.640625 2.691406 -3.851562 3.765625 -3.875 L 4.203125 -3.90625 C 4.242188 -3.90625 4.28125 -3.921875 4.3125 -3.953125 C 4.351562 -3.984375 4.375 -4.023438 4.375 -4.078125 L 4.375 -4.328125 C 4.375 -4.640625 4.285156 -4.878906 4.109375 -5.046875 C 3.929688 -5.210938 3.679688 -5.296875 3.359375 -5.296875 C 2.804688 -5.296875 2.394531 -5.054688 2.125 -4.578125 C 2.09375 -4.492188 2.039062 -4.453125 1.96875 -4.453125 C 1.925781 -4.453125 1.890625 -4.457031 1.859375 -4.46875 L 0.671875 -4.75 C 0.597656 -4.757812 0.5625 -4.800781 0.5625 -4.875 C 0.5625 -4.925781 0.578125 -4.988281 0.609375 -5.0625 C 0.796875 -5.519531 1.132812 -5.863281 1.625 -6.09375 C 2.113281 -6.320312 2.722656 -6.4375 3.453125 -6.4375 C 4.390625 -6.4375 5.066406 -6.265625 5.484375 -5.921875 C 5.910156 -5.578125 6.125 -5.085938 6.125 -4.453125 L 6.125 -0.265625 C 6.125 -0.171875 6.109375 -0.101562 6.078125 -0.0625 C 6.046875 -0.0195312 5.988281 0 5.90625 0 L 4.671875 0 C 4.585938 0 4.53125 -0.0234375 4.5 -0.078125 C 4.46875 -0.140625 4.441406 -0.222656 4.421875 -0.328125 L 4.40625 -0.59375 C 4.40625 -0.664062 4.375 -0.703125 4.3125 -0.703125 C 4.28125 -0.703125 4.222656 -0.671875 4.140625 -0.609375 Z M 4.375 -2.8125 C 4.375 -2.882812 4.359375 -2.9375 4.328125 -2.96875 C 4.304688 -3 4.265625 -3.015625 4.203125 -3.015625 L 3.859375 -3 C 3.398438 -2.96875 2.992188 -2.851562 2.640625 -2.65625 C 2.285156 -2.46875 2.109375 -2.203125 2.109375 -1.859375 C 2.109375 -1.617188 2.191406 -1.425781 2.359375 -1.28125 C 2.523438 -1.144531 2.753906 -1.078125 3.046875 -1.078125 C 3.410156 -1.078125 3.722656 -1.1875 3.984375 -1.40625 C 4.242188 -1.613281 4.375 -1.820312 4.375 -2.03125 Z M 4.375 -2.8125 "/></g></g></g><g fill="#ffffff" fill-opacity="1"><g transform="translate(73.17928, 27.241309)"><g><path d="M 2.5 -0.28125 C 2.5 -0.175781 2.472656 -0.101562 2.421875 -0.0625 C 2.378906 -0.0195312 2.300781 0 2.1875 0 L 0.921875 0 C 0.828125 0 0.757812 -0.0195312 0.71875 -0.0625 C 0.675781 -0.101562 0.65625 -0.164062 0.65625 -0.25 L 0.6875 -8.625 C 0.6875 -8.769531 0.75 -8.84375 0.875 -8.84375 L 2.328125 -8.84375 C 2.441406 -8.84375 2.5 -8.769531 2.5 -8.625 Z M 2.5 -0.28125 "/></g></g></g><g fill="#ffffff" fill-opacity="1"><g transform="translate(76.350811, 27.241309)"><g><path d="M 2.515625 -7.375 C 2.515625 -7.175781 2.40625 -7.078125 2.1875 -7.078125 L 0.90625 -7.078125 C 0.8125 -7.078125 0.742188 -7.097656 0.703125 -7.140625 C 0.660156 -7.191406 0.640625 -7.265625 0.640625 -7.359375 L 0.640625 -8.609375 C 0.640625 -8.765625 0.707031 -8.84375 0.84375 -8.84375 L 2.328125 -8.84375 C 2.378906 -8.84375 2.421875 -8.820312 2.453125 -8.78125 C 2.492188 -8.75 2.515625 -8.695312 2.515625 -8.625 Z M 2.484375 -0.28125 C 2.484375 -0.175781 2.457031 -0.101562 2.40625 -0.0625 C 2.363281 -0.0195312 2.285156 0 2.171875 0 L 0.921875 0 C 0.828125 0 0.757812 -0.0195312 0.71875 -0.0625 C 0.675781 -0.101562 0.65625 -0.164062 0.65625 -0.25 L 0.65625 -6.09375 C 0.65625 -6.238281 0.722656 -6.3125 0.859375 -6.3125 L 2.3125 -6.3125 C 2.425781 -6.3125 2.484375 -6.242188 2.484375 -6.109375 Z M 2.484375 -0.28125 "/></g></g></g><g fill="#ffffff" fill-opacity="1"><g transform="translate(79.510425, 27.241309)"><g><path d="M 4.546875 -4.671875 C 4.222656 -5.097656 3.757812 -5.3125 3.15625 -5.3125 C 2.851562 -5.3125 2.601562 -5.253906 2.40625 -5.140625 C 2.207031 -5.023438 2.109375 -4.867188 2.109375 -4.671875 C 2.109375 -4.554688 2.15625 -4.453125 2.25 -4.359375 C 2.34375 -4.273438 2.519531 -4.203125 2.78125 -4.140625 L 4.15625 -3.796875 C 4.78125 -3.648438 5.238281 -3.410156 5.53125 -3.078125 C 5.820312 -2.753906 5.96875 -2.367188 5.96875 -1.921875 C 5.96875 -1.296875 5.707031 -0.796875 5.1875 -0.421875 C 4.664062 -0.0546875 3.976562 0.125 3.125 0.125 C 2.4375 0.125 1.84375 0.00390625 1.34375 -0.234375 C 0.84375 -0.484375 0.488281 -0.800781 0.28125 -1.1875 C 0.238281 -1.25 0.21875 -1.300781 0.21875 -1.34375 C 0.21875 -1.40625 0.25 -1.445312 0.3125 -1.46875 L 1.125 -1.890625 C 1.1875 -1.921875 1.238281 -1.9375 1.28125 -1.9375 C 1.332031 -1.9375 1.378906 -1.914062 1.421875 -1.875 C 1.597656 -1.625 1.8125 -1.425781 2.0625 -1.28125 C 2.3125 -1.132812 2.640625 -1.0625 3.046875 -1.0625 C 3.421875 -1.0625 3.722656 -1.113281 3.953125 -1.21875 C 4.191406 -1.332031 4.3125 -1.5 4.3125 -1.71875 C 4.3125 -1.863281 4.25 -1.984375 4.125 -2.078125 C 4.007812 -2.171875 3.8125 -2.253906 3.53125 -2.328125 L 2.296875 -2.59375 C 1.085938 -2.851562 0.484375 -3.453125 0.484375 -4.390625 C 0.484375 -4.785156 0.59375 -5.132812 0.8125 -5.4375 C 1.03125 -5.75 1.34375 -5.992188 1.75 -6.171875 C 2.15625 -6.347656 2.632812 -6.4375 3.1875 -6.4375 C 3.757812 -6.4375 4.269531 -6.328125 4.71875 -6.109375 C 5.175781 -5.898438 5.503906 -5.632812 5.703125 -5.3125 C 5.742188 -5.238281 5.765625 -5.179688 5.765625 -5.140625 C 5.765625 -5.085938 5.738281 -5.046875 5.6875 -5.015625 L 4.828125 -4.609375 C 4.804688 -4.585938 4.773438 -4.578125 4.734375 -4.578125 C 4.660156 -4.578125 4.597656 -4.609375 4.546875 -4.671875 Z M 4.546875 -4.671875 "/></g></g></g><g fill="#ffffff" fill-opacity="1"><g transform="translate(85.829654, 27.241309)"><g><path d="M 3.3125 -5.0625 C 3.226562 -5.0625 3.1875 -5.007812 3.1875 -4.90625 L 3.1875 -2.03125 C 3.1875 -1.769531 3.25 -1.578125 3.375 -1.453125 C 3.5 -1.335938 3.703125 -1.28125 3.984375 -1.28125 L 4.625 -1.28125 C 4.675781 -1.28125 4.71875 -1.265625 4.75 -1.234375 C 4.78125 -1.203125 4.796875 -1.148438 4.796875 -1.078125 L 4.796875 -0.359375 C 4.796875 -0.203125 4.707031 -0.109375 4.53125 -0.078125 C 4.195312 -0.0234375 3.722656 0 3.109375 0 C 2.554688 0 2.125 -0.128906 1.8125 -0.390625 C 1.5 -0.648438 1.34375 -1.03125 1.34375 -1.53125 L 1.34375 -4.875 C 1.34375 -5 1.289062 -5.0625 1.1875 -5.0625 L 0.46875 -5.0625 C 0.3125 -5.0625 0.234375 -5.125 0.234375 -5.25 L 0.234375 -6.140625 C 0.234375 -6.253906 0.304688 -6.3125 0.453125 -6.3125 L 1.28125 -6.3125 C 1.34375 -6.3125 1.378906 -6.359375 1.390625 -6.453125 L 1.5625 -8.265625 C 1.570312 -8.398438 1.628906 -8.46875 1.734375 -8.46875 L 3.046875 -8.46875 C 3.097656 -8.46875 3.140625 -8.445312 3.171875 -8.40625 C 3.210938 -8.363281 3.234375 -8.304688 3.234375 -8.234375 L 3.234375 -6.453125 C 3.234375 -6.367188 3.269531 -6.328125 3.34375 -6.328125 L 4.609375 -6.328125 C 4.742188 -6.328125 4.8125 -6.265625 4.8125 -6.140625 L 4.8125 -5.25 C 4.8125 -5.125 4.734375 -5.0625 4.578125 -5.0625 Z M 3.3125 -5.0625 "/></g></g></g><g clip-path="url(#6fa069285e)"><path fill="#00aa44" d="M 17.253906 1.511719 C 17.160156 1.488281 13.832031 2.082031 8.894531 3.003906 C 2.308594 4.234375 0.65625 4.5625 0.507812 4.664062 C 0.40625 4.738281 0.269531 4.902344 0.203125 5.035156 C 0.078125 5.273438 0.078125 5.441406 0.078125 16.398438 C 0.078125 27.355469 0.078125 27.527344 0.203125 27.761719 C 0.449219 28.242188 0 28.140625 8.769531 29.78125 C 13.210938 30.613281 16.925781 31.296875 17.027344 31.296875 C 17.304688 31.304688 17.707031 31.097656 17.875 30.863281 C 18.023438 30.65625 18.027344 30.632812 18.046875 28.992188 L 18.0625 27.332031 L 31.398438 27.300781 L 31.617188 27.132812 C 32.078125 26.78125 32.042969 27.683594 32.042969 16.398438 C 32.042969 5.113281 32.078125 6.015625 31.617188 5.667969 L 31.398438 5.5 L 24.726562 5.484375 L 18.058594 5.464844 L 18.058594 3.867188 C 18.058594 2.429688 18.046875 2.246094 17.941406 2.050781 C 17.820312 1.820312 17.507812 1.578125 17.253906 1.511719 Z M 18.058594 7.457031 L 30.042969 7.457031 L 30.042969 25.34375 L 18.058594 25.34375 L 18.058594 23.355469 L 19.65625 23.355469 C 21.445312 23.355469 21.542969 23.335938 21.855469 22.933594 C 22.09375 22.621094 22.09375 22.105469 21.855469 21.792969 C 21.542969 21.386719 21.445312 21.367188 19.65625 21.367188 L 18.058594 21.367188 L 18.058594 19.378906 L 19.65625 19.378906 C 21.445312 19.378906 21.542969 19.359375 21.855469 18.957031 C 22.09375 18.644531 22.09375 18.128906 21.855469 17.816406 C 21.542969 17.414062 21.445312 17.394531 19.65625 17.394531 L 18.058594 17.394531 L 18.058594 15.40625 L 19.65625 15.40625 C 21.445312 15.40625 21.542969 15.386719 21.855469 14.984375 C 21.992188 14.804688 22.023438 14.699219 22.023438 14.410156 C 22.023438 14.125 21.992188 14.019531 21.855469 13.839844 C 21.542969 13.4375 21.445312 13.417969 19.65625 13.417969 L 18.058594 13.417969 L 18.058594 11.429688 L 19.65625 11.429688 C 21.445312 11.429688 21.542969 11.410156 21.855469 11.007812 C 22.09375 10.695312 22.09375 10.179688 21.855469 9.867188 C 21.542969 9.460938 21.445312 9.441406 19.65625 9.441406 L 18.058594 9.441406 Z M 26.050781 9.441406 C 24.703125 9.441406 24.546875 9.480469 24.25 9.867188 C 24.011719 10.179688 24.011719 10.695312 24.25 11.007812 C 24.339844 11.125 24.511719 11.269531 24.625 11.328125 C 24.792969 11.410156 25.050781 11.429688 26.039062 11.429688 C 27.398438 11.429688 27.550781 11.394531 27.847656 11.007812 C 27.984375 10.828125 28.015625 10.722656 28.015625 10.4375 C 28.015625 10.152344 27.984375 10.042969 27.847656 9.867188 C 27.550781 9.480469 27.398438 9.441406 26.050781 9.441406 Z M 13.375 10.875 C 13.390625 10.875 13.402344 10.875 13.410156 10.875 C 13.5 10.890625 13.585938 10.957031 13.628906 11.035156 C 13.644531 11.066406 13.78125 11.558594 13.933594 12.125 C 14.246094 13.28125 14.242188 13.257812 14.097656 13.402344 C 14.023438 13.472656 14.003906 13.484375 13.914062 13.484375 C 13.789062 13.484375 13.675781 13.433594 13.617188 13.351562 C 13.59375 13.320312 13.503906 13.03125 13.417969 12.710938 C 13.335938 12.394531 13.257812 12.125 13.25 12.113281 C 13.242188 12.105469 13.183594 12.179688 13.125 12.277344 C 12.351562 13.53125 11.03125 14.847656 9.574219 15.8125 C 9.097656 16.128906 8.683594 16.367188 8.140625 16.636719 C 6.785156 17.308594 5.464844 17.691406 4.089844 17.804688 C 3.71875 17.835938 3.34375 17.832031 3.261719 17.796875 C 3.101562 17.726562 3.03125 17.476562 3.132812 17.339844 C 3.238281 17.199219 3.257812 17.195312 3.714844 17.175781 C 5.175781 17.117188 6.664062 16.691406 8.144531 15.910156 C 9.878906 14.996094 11.457031 13.609375 12.4375 12.140625 C 12.65625 11.816406 12.714844 11.710938 12.679688 11.710938 C 12.664062 11.710938 12.378906 11.78125 12.046875 11.871094 C 11.367188 12.054688 11.269531 12.066406 11.164062 11.976562 C 10.976562 11.820312 10.992188 11.5625 11.195312 11.449219 C 11.230469 11.425781 11.726562 11.289062 12.296875 11.136719 C 12.996094 10.949219 13.277344 10.882812 13.375 10.875 Z M 26.050781 13.417969 C 24.703125 13.417969 24.546875 13.453125 24.25 13.839844 C 24.011719 14.152344 24.011719 14.667969 24.25 14.980469 C 24.339844 15.101562 24.511719 15.246094 24.625 15.300781 C 24.792969 15.382812 25.050781 15.402344 26.039062 15.402344 C 27.398438 15.40625 27.550781 15.371094 27.847656 14.984375 C 27.984375 14.804688 28.015625 14.699219 28.015625 14.410156 C 28.015625 14.125 27.984375 14.019531 27.847656 13.839844 C 27.550781 13.453125 27.398438 13.417969 26.050781 13.417969 Z M 12.542969 14.5625 C 13.21875 14.5625 13.261719 14.566406 13.351562 14.609375 C 13.417969 14.640625 13.453125 14.679688 13.488281 14.746094 C 13.53125 14.835938 13.53125 14.847656 13.53125 18.0625 L 13.53125 21.289062 L 13.730469 21.289062 C 13.988281 21.289062 14.09375 21.332031 14.160156 21.46875 C 14.21875 21.585938 14.21875 21.640625 14.160156 21.753906 C 14.128906 21.824219 14.089844 21.859375 14.023438 21.890625 L 13.929688 21.9375 L 8.640625 21.9375 C 3.378906 21.9375 3.347656 21.9375 3.261719 21.894531 C 3.160156 21.84375 3.078125 21.71875 3.078125 21.613281 C 3.078125 21.511719 3.15625 21.386719 3.25 21.332031 C 3.320312 21.296875 3.371094 21.289062 3.542969 21.289062 L 3.75 21.289062 L 3.75 20.117188 C 3.75 18.964844 3.753906 18.945312 3.796875 18.867188 C 3.824219 18.820312 3.878906 18.765625 3.925781 18.738281 C 4.003906 18.695312 4.035156 18.695312 4.730469 18.695312 C 5.433594 18.695312 5.453125 18.695312 5.535156 18.742188 C 5.589844 18.769531 5.636719 18.820312 5.664062 18.878906 C 5.707031 18.964844 5.707031 19.011719 5.707031 20.128906 L 5.707031 21.289062 L 6.359375 21.289062 L 6.359375 19.730469 C 6.359375 18.179688 6.359375 18.167969 6.40625 18.089844 C 6.429688 18.042969 6.488281 17.984375 6.535156 17.960938 C 6.613281 17.917969 6.640625 17.914062 7.335938 17.914062 C 8.039062 17.914062 8.0625 17.917969 8.144531 17.960938 C 8.199219 17.992188 8.246094 18.042969 8.273438 18.097656 C 8.3125 18.1875 8.316406 18.230469 8.316406 19.738281 L 8.316406 21.289062 L 8.96875 21.289062 L 8.96875 19.132812 C 8.96875 16.980469 8.96875 16.980469 9.011719 16.898438 C 9.039062 16.855469 9.097656 16.796875 9.140625 16.773438 C 9.21875 16.726562 9.25 16.726562 9.9375 16.726562 C 10.613281 16.726562 10.652344 16.726562 10.742188 16.769531 C 10.808594 16.800781 10.847656 16.839844 10.878906 16.90625 C 10.921875 16.996094 10.921875 17.023438 10.921875 19.144531 L 10.921875 21.289062 L 11.574219 21.289062 L 11.574219 14.816406 L 11.621094 14.738281 C 11.648438 14.691406 11.703125 14.632812 11.75 14.609375 C 11.828125 14.566406 11.859375 14.5625 12.542969 14.5625 Z M 26.050781 17.394531 C 24.703125 17.394531 24.546875 17.429688 24.25 17.816406 C 24.011719 18.128906 24.011719 18.644531 24.25 18.957031 C 24.339844 19.078125 24.511719 19.21875 24.625 19.277344 C 24.792969 19.359375 25.050781 19.378906 26.039062 19.378906 C 27.398438 19.378906 27.550781 19.34375 27.847656 18.957031 C 27.984375 18.777344 28.015625 18.671875 28.015625 18.386719 C 28.015625 18.101562 27.984375 17.996094 27.847656 17.816406 C 27.550781 17.429688 27.398438 17.394531 26.050781 17.394531 Z M 26.050781 21.367188 C 24.703125 21.367188 24.546875 21.40625 24.25 21.792969 C 24.011719 22.105469 24.011719 22.621094 24.25 22.929688 C 24.339844 23.050781 24.511719 23.195312 24.625 23.25 C 24.792969 23.335938 25.050781 23.351562 26.039062 23.355469 C 27.398438 23.355469 27.550781 23.320312 27.847656 22.933594 C 27.984375 22.753906 28.015625 22.648438 28.015625 22.363281 C 28.015625 22.074219 27.984375 21.96875 27.847656 21.792969 C 27.550781 21.40625 27.398438 21.367188 26.050781 21.367188 Z M 26.050781 21.367188 " fill-opacity="1" fill-rule="nonzero"/></g><g clip-path="url(#51257422ae)"><path fill="#008033" d="M 16.542969 1.617188 C 15.3125 1.824219 12.554688 2.320312 8.894531 3.003906 C 2.308594 4.234375 0.65625 4.5625 0.507812 4.664062 C 0.40625 4.738281 0.269531 4.902344 0.203125 5.035156 C 0.078125 5.273438 0.078125 5.441406 0.078125 16.398438 C 0.078125 27.355469 0.078125 27.527344 0.203125 27.761719 C 0.289062 27.933594 0.296875 28.03125 0.65625 28.160156 C 0.699219 27.941406 0.746094 27.726562 0.792969 27.511719 C 0.84375 27.269531 0.898438 27.027344 0.953125 26.789062 C 1.011719 26.546875 1.070312 26.308594 1.128906 26.074219 C 1.1875 25.835938 1.25 25.601562 1.3125 25.371094 C 1.375 25.136719 1.441406 24.90625 1.507812 24.675781 C 1.574219 24.445312 1.644531 24.214844 1.714844 23.988281 C 1.785156 23.761719 1.855469 23.535156 1.929688 23.3125 C 2 23.089844 2.078125 22.867188 2.152344 22.644531 C 2.230469 22.425781 2.308594 22.207031 2.386719 21.988281 C 2.46875 21.769531 2.546875 21.554688 2.628906 21.335938 C 2.714844 21.121094 2.796875 20.910156 2.882812 20.695312 C 2.96875 20.484375 3.054688 20.273438 3.144531 20.0625 C 3.234375 19.855469 3.324219 19.644531 3.414062 19.4375 C 3.507812 19.230469 3.601562 19.027344 3.695312 18.820312 C 3.789062 18.617188 3.882812 18.414062 3.980469 18.210938 C 4.046875 18.074219 4.117188 17.933594 4.183594 17.796875 C 4.152344 17.800781 4.121094 17.804688 4.089844 17.804688 C 3.71875 17.835938 3.34375 17.832031 3.261719 17.796875 C 3.101562 17.726562 3.03125 17.476562 3.132812 17.339844 C 3.238281 17.199219 3.257812 17.195312 3.714844 17.175781 C 3.984375 17.164062 4.257812 17.140625 4.535156 17.105469 C 4.550781 17.074219 4.566406 17.046875 4.582031 17.015625 C 4.683594 16.820312 4.785156 16.625 4.890625 16.429688 C 4.996094 16.234375 5.101562 16.039062 5.210938 15.847656 C 5.316406 15.65625 5.425781 15.464844 5.535156 15.273438 C 5.648438 15.085938 5.757812 14.894531 5.871094 14.707031 C 5.984375 14.519531 6.097656 14.332031 6.210938 14.148438 C 6.324219 13.960938 6.441406 13.777344 6.558594 13.59375 C 6.675781 13.410156 6.792969 13.226562 6.910156 13.046875 C 7.03125 12.863281 7.152344 12.683594 7.273438 12.503906 C 7.394531 12.324219 7.515625 12.144531 7.640625 11.96875 C 7.761719 11.789062 7.886719 11.613281 8.011719 11.4375 C 8.136719 11.261719 8.261719 11.085938 8.390625 10.914062 C 8.515625 10.738281 8.644531 10.566406 8.773438 10.394531 C 8.902344 10.21875 9.03125 10.046875 9.164062 9.878906 C 9.292969 9.707031 9.425781 9.539062 9.558594 9.367188 C 9.691406 9.199219 9.824219 9.03125 9.957031 8.863281 C 10.09375 8.695312 10.226562 8.527344 10.363281 8.363281 C 10.5 8.195312 10.636719 8.03125 10.773438 7.867188 C 10.910156 7.699219 11.046875 7.535156 11.1875 7.375 C 11.324219 7.210938 11.464844 7.046875 11.605469 6.886719 C 11.886719 6.558594 12.167969 6.238281 12.453125 5.917969 C 12.738281 5.601562 13.027344 5.28125 13.316406 4.96875 C 13.605469 4.652344 13.898438 4.339844 14.195312 4.027344 C 14.488281 3.71875 14.785156 3.40625 15.082031 3.097656 C 15.378906 2.792969 15.679688 2.484375 15.980469 2.179688 C 16.167969 1.992188 16.355469 1.804688 16.542969 1.617188 Z M 16.542969 1.617188 " fill-opacity="1" fill-rule="nonzero"/></g><path fill="#005522" d="M 0.0898438 7.433594 C 0.078125 9.015625 0.078125 11.664062 0.078125 16.398438 C 0.078125 27.355469 0.078125 27.527344 0.203125 27.761719 C 0.449219 28.242188 0 28.140625 8.769531 29.78125 C 11.421875 30.277344 13.707031 30.699219 15.226562 30.976562 C 14.960938 30.753906 14.699219 30.53125 14.433594 30.3125 C 14.195312 30.109375 13.957031 29.910156 13.71875 29.707031 C 13.484375 29.503906 13.246094 29.300781 13.007812 29.097656 C 12.769531 28.894531 12.535156 28.6875 12.296875 28.480469 C 12.0625 28.273438 11.824219 28.0625 11.589844 27.851562 C 11.355469 27.636719 11.121094 27.421875 10.890625 27.207031 C 10.773438 27.097656 10.65625 26.988281 10.542969 26.875 C 10.425781 26.765625 10.308594 26.652344 10.195312 26.542969 C 10.078125 26.429688 9.964844 26.316406 9.851562 26.203125 C 9.734375 26.085938 9.621094 25.972656 9.507812 25.855469 C 9.394531 25.738281 9.28125 25.621094 9.167969 25.503906 C 9.054688 25.386719 8.941406 25.265625 8.828125 25.144531 C 8.714844 25.023438 8.605469 24.902344 8.492188 24.777344 C 8.382812 24.652344 8.269531 24.53125 8.160156 24.402344 C 8.046875 24.277344 7.9375 24.148438 7.828125 24.019531 C 7.71875 23.890625 7.609375 23.761719 7.5 23.628906 C 7.394531 23.5 7.285156 23.363281 7.175781 23.230469 C 7.070312 23.09375 6.960938 22.957031 6.855469 22.820312 C 6.75 22.683594 6.644531 22.542969 6.539062 22.402344 C 6.433594 22.257812 6.328125 22.117188 6.222656 21.972656 C 6.214844 21.960938 6.207031 21.949219 6.199219 21.9375 C 3.496094 21.933594 3.332031 21.925781 3.261719 21.894531 C 3.160156 21.84375 3.078125 21.71875 3.078125 21.613281 C 3.078125 21.511719 3.15625 21.386719 3.25 21.332031 C 3.320312 21.296875 3.371094 21.289062 3.542969 21.289062 L 3.75 21.289062 L 3.75 20.117188 C 3.75 18.964844 3.753906 18.945312 3.796875 18.867188 C 3.824219 18.820312 3.878906 18.765625 3.925781 18.738281 C 3.972656 18.714844 4.015625 18.703125 4.164062 18.699219 C 4.152344 18.675781 4.140625 18.65625 4.128906 18.636719 C 4.035156 18.464844 3.941406 18.285156 3.847656 18.109375 C 3.796875 18.015625 3.75 17.921875 3.703125 17.824219 C 3.488281 17.828125 3.3125 17.820312 3.261719 17.796875 C 3.101562 17.726562 3.03125 17.476562 3.132812 17.339844 C 3.203125 17.246094 3.238281 17.214844 3.390625 17.195312 C 3.359375 17.132812 3.328125 17.070312 3.300781 17.007812 C 3.210938 16.820312 3.121094 16.628906 3.03125 16.4375 C 2.945312 16.242188 2.855469 16.046875 2.769531 15.847656 C 2.683594 15.652344 2.597656 15.449219 2.515625 15.246094 C 2.429688 15.042969 2.34375 14.835938 2.261719 14.625 C 2.179688 14.417969 2.097656 14.203125 2.019531 13.988281 C 1.9375 13.773438 1.855469 13.554688 1.777344 13.335938 C 1.699219 13.113281 1.621094 12.890625 1.542969 12.664062 C 1.46875 12.4375 1.390625 12.207031 1.316406 11.972656 C 1.242188 11.742188 1.167969 11.503906 1.097656 11.265625 C 1.023438 11.027344 0.953125 10.78125 0.882812 10.539062 C 0.808594 10.292969 0.742188 10.042969 0.671875 9.789062 C 0.605469 9.539062 0.539062 9.28125 0.472656 9.023438 C 0.40625 8.765625 0.339844 8.503906 0.277344 8.238281 C 0.210938 7.972656 0.148438 7.703125 0.0898438 7.433594 Z M 5.707031 21.230469 L 5.707031 21.289062 L 5.746094 21.289062 C 5.734375 21.269531 5.71875 21.25 5.707031 21.230469 Z M 5.707031 21.230469 " fill-opacity="1" fill-rule="nonzero"/><g fill="#000000" fill-opacity="0.4"><g transform="translate(36.023083, 14.640493)"><g><path d="M 0.828125 -8.625 C 0.828125 -8.769531 0.894531 -8.84375 1.03125 -8.84375 L 7.03125 -8.84375 C 7.15625 -8.84375 7.21875 -8.773438 7.21875 -8.640625 L 7.203125 -7.578125 C 7.203125 -7.398438 7.117188 -7.3125 6.953125 -7.3125 L 3.140625 -7.3125 C 2.992188 -7.3125 2.921875 -7.25 2.921875 -7.125 L 2.921875 -5.40625 C 2.921875 -5.269531 2.976562 -5.203125 3.09375 -5.203125 L 5.625 -5.203125 C 5.757812 -5.203125 5.828125 -5.132812 5.828125 -5 L 5.828125 -3.859375 C 5.828125 -3.753906 5.765625 -3.703125 5.640625 -3.703125 L 3.09375 -3.703125 C 2.976562 -3.703125 2.921875 -3.648438 2.921875 -3.546875 L 2.921875 -1.6875 C 2.921875 -1.625 2.929688 -1.582031 2.953125 -1.5625 C 2.972656 -1.539062 3.003906 -1.53125 3.046875 -1.53125 L 7.125 -1.53125 C 7.269531 -1.53125 7.34375 -1.46875 7.34375 -1.34375 L 7.34375 -0.21875 C 7.34375 -0.0703125 7.265625 0 7.109375 0 L 1.09375 0 C 1 0 0.929688 -0.0195312 0.890625 -0.0625 C 0.847656 -0.101562 0.828125 -0.164062 0.828125 -0.25 Z M 0.828125 -8.625 "/></g></g></g><g fill="#000000" fill-opacity="0.4"><g transform="translate(43.820774, 14.640493)"><g><path d="M 6.6875 -0.40625 C 6.78125 -0.28125 6.828125 -0.1875 6.828125 -0.125 C 6.828125 -0.0390625 6.753906 0 6.609375 0 L 5.078125 0 C 4.890625 0 4.753906 -0.0625 4.671875 -0.1875 L 3.453125 -1.921875 C 3.378906 -2.023438 3.328125 -2.078125 3.296875 -2.078125 C 3.265625 -2.078125 3.21875 -2.03125 3.15625 -1.9375 L 1.90625 -0.1875 C 1.820312 -0.0625 1.691406 0 1.515625 0 L 0.53125 0 C 0.34375 0 0.25 -0.0546875 0.25 -0.171875 C 0.25 -0.253906 0.296875 -0.359375 0.390625 -0.484375 L 2.34375 -3 C 2.394531 -3.0625 2.421875 -3.113281 2.421875 -3.15625 C 2.421875 -3.21875 2.394531 -3.285156 2.34375 -3.359375 L 0.40625 -5.984375 C 0.375 -6.023438 0.359375 -6.070312 0.359375 -6.125 C 0.359375 -6.175781 0.378906 -6.21875 0.421875 -6.25 C 0.460938 -6.289062 0.515625 -6.3125 0.578125 -6.3125 L 2.03125 -6.3125 C 2.132812 -6.3125 2.210938 -6.296875 2.265625 -6.265625 C 2.316406 -6.242188 2.367188 -6.195312 2.421875 -6.125 L 3.53125 -4.5625 C 3.570312 -4.5 3.609375 -4.46875 3.640625 -4.46875 C 3.660156 -4.46875 3.691406 -4.5 3.734375 -4.5625 L 4.78125 -6.125 C 4.832031 -6.195312 4.878906 -6.242188 4.921875 -6.265625 C 4.972656 -6.296875 5.054688 -6.3125 5.171875 -6.3125 L 6.25 -6.3125 C 6.382812 -6.3125 6.453125 -6.273438 6.453125 -6.203125 C 6.453125 -6.160156 6.425781 -6.109375 6.375 -6.046875 L 4.609375 -3.640625 C 4.554688 -3.578125 4.53125 -3.519531 4.53125 -3.46875 C 4.53125 -3.425781 4.554688 -3.363281 4.609375 -3.28125 Z M 6.6875 -0.40625 "/></g></g></g><g fill="#000000" fill-opacity="0.4"><g transform="translate(50.867305, 14.640493)"><g><path d="M 3.546875 -6.4375 C 4.253906 -6.4375 4.835938 -6.257812 5.296875 -5.90625 C 5.765625 -5.550781 6.078125 -5.125 6.234375 -4.625 C 6.253906 -4.5625 6.265625 -4.519531 6.265625 -4.5 C 6.265625 -4.4375 6.207031 -4.394531 6.09375 -4.375 L 4.84375 -4.25 L 4.796875 -4.25 C 4.734375 -4.25 4.6875 -4.296875 4.65625 -4.390625 C 4.519531 -4.671875 4.375 -4.878906 4.21875 -5.015625 C 4.070312 -5.160156 3.863281 -5.234375 3.59375 -5.234375 C 3.164062 -5.234375 2.832031 -5.054688 2.59375 -4.703125 C 2.351562 -4.359375 2.234375 -3.84375 2.234375 -3.15625 C 2.234375 -2.457031 2.359375 -1.929688 2.609375 -1.578125 C 2.867188 -1.234375 3.234375 -1.0625 3.703125 -1.0625 C 4.023438 -1.0625 4.285156 -1.144531 4.484375 -1.3125 C 4.691406 -1.476562 4.898438 -1.734375 5.109375 -2.078125 C 5.128906 -2.117188 5.148438 -2.140625 5.171875 -2.140625 C 5.203125 -2.140625 5.25 -2.140625 5.3125 -2.140625 L 6.1875 -1.9375 C 6.257812 -1.925781 6.296875 -1.882812 6.296875 -1.8125 L 6.265625 -1.703125 C 6.109375 -1.242188 5.800781 -0.820312 5.34375 -0.4375 C 4.882812 -0.0625 4.285156 0.125 3.546875 0.125 C 2.929688 0.125 2.382812 -0.0078125 1.90625 -0.28125 C 1.425781 -0.5625 1.050781 -0.945312 0.78125 -1.4375 C 0.507812 -1.9375 0.375 -2.503906 0.375 -3.140625 C 0.375 -3.773438 0.507812 -4.34375 0.78125 -4.84375 C 1.050781 -5.351562 1.425781 -5.742188 1.90625 -6.015625 C 2.394531 -6.296875 2.941406 -6.4375 3.546875 -6.4375 Z M 3.546875 -6.4375 "/></g></g></g><g fill="#000000" fill-opacity="0.4"><g transform="translate(57.436912, 14.640493)"><g><path d="M 2.265625 -2.625 C 2.265625 -2.175781 2.410156 -1.8125 2.703125 -1.53125 C 3.003906 -1.257812 3.378906 -1.125 3.828125 -1.125 C 4.109375 -1.125 4.367188 -1.1875 4.609375 -1.3125 C 4.859375 -1.4375 5.109375 -1.644531 5.359375 -1.9375 C 5.390625 -1.96875 5.421875 -1.984375 5.453125 -1.984375 C 5.472656 -1.984375 5.507812 -1.96875 5.5625 -1.9375 L 6.421875 -1.578125 C 6.484375 -1.554688 6.515625 -1.519531 6.515625 -1.46875 C 6.515625 -1.425781 6.5 -1.382812 6.46875 -1.34375 C 6.082031 -0.800781 5.671875 -0.421875 5.234375 -0.203125 C 4.796875 0.015625 4.25 0.125 3.59375 0.125 C 2.988281 0.125 2.4375 -0.0078125 1.9375 -0.28125 C 1.445312 -0.550781 1.0625 -0.925781 0.78125 -1.40625 C 0.507812 -1.894531 0.375 -2.445312 0.375 -3.0625 C 0.375 -3.726562 0.515625 -4.316406 0.796875 -4.828125 C 1.085938 -5.347656 1.472656 -5.742188 1.953125 -6.015625 C 2.441406 -6.296875 2.976562 -6.4375 3.5625 -6.4375 C 4.164062 -6.4375 4.703125 -6.300781 5.171875 -6.03125 C 5.640625 -5.769531 6.003906 -5.390625 6.265625 -4.890625 C 6.535156 -4.390625 6.671875 -3.789062 6.671875 -3.09375 C 6.671875 -2.988281 6.660156 -2.914062 6.640625 -2.875 C 6.617188 -2.84375 6.5625 -2.820312 6.46875 -2.8125 L 2.40625 -2.8125 C 2.3125 -2.8125 2.265625 -2.75 2.265625 -2.625 Z M 4.65625 -3.8125 C 4.75 -3.8125 4.804688 -3.820312 4.828125 -3.84375 C 4.847656 -3.863281 4.859375 -3.910156 4.859375 -3.984375 C 4.859375 -4.191406 4.8125 -4.394531 4.71875 -4.59375 C 4.625 -4.800781 4.484375 -4.972656 4.296875 -5.109375 C 4.117188 -5.242188 3.898438 -5.3125 3.640625 -5.3125 C 3.242188 -5.3125 2.914062 -5.171875 2.65625 -4.890625 C 2.40625 -4.617188 2.28125 -4.265625 2.28125 -3.828125 Z M 4.65625 -3.8125 "/></g></g></g><g fill="#000000" fill-opacity="0.4"><g transform="translate(64.423825, 14.640493)"><g><path d="M 2.5 -0.28125 C 2.5 -0.175781 2.472656 -0.101562 2.421875 -0.0625 C 2.378906 -0.0195312 2.300781 0 2.1875 0 L 0.921875 0 C 0.828125 0 0.757812 -0.0195312 0.71875 -0.0625 C 0.675781 -0.101562 0.65625 -0.164062 0.65625 -0.25 L 0.6875 -8.625 C 0.6875 -8.769531 0.75 -8.84375 0.875 -8.84375 L 2.328125 -8.84375 C 2.441406 -8.84375 2.5 -8.769531 2.5 -8.625 Z M 2.5 -0.28125 "/></g></g></g><g fill="#ffffff" fill-opacity="1"><g transform="translate(35.495636, 14.113048)"><g><path d="M 0.828125 -8.625 C 0.828125 -8.769531 0.894531 -8.84375 1.03125 -8.84375 L 7.03125 -8.84375 C 7.15625 -8.84375 7.21875 -8.773438 7.21875 -8.640625 L 7.203125 -7.578125 C 7.203125 -7.398438 7.117188 -7.3125 6.953125 -7.3125 L 3.140625 -7.3125 C 2.992188 -7.3125 2.921875 -7.25 2.921875 -7.125 L 2.921875 -5.40625 C 2.921875 -5.269531 2.976562 -5.203125 3.09375 -5.203125 L 5.625 -5.203125 C 5.757812 -5.203125 5.828125 -5.132812 5.828125 -5 L 5.828125 -3.859375 C 5.828125 -3.753906 5.765625 -3.703125 5.640625 -3.703125 L 3.09375 -3.703125 C 2.976562 -3.703125 2.921875 -3.648438 2.921875 -3.546875 L 2.921875 -1.6875 C 2.921875 -1.625 2.929688 -1.582031 2.953125 -1.5625 C 2.972656 -1.539062 3.003906 -1.53125 3.046875 -1.53125 L 7.125 -1.53125 C 7.269531 -1.53125 7.34375 -1.46875 7.34375 -1.34375 L 7.34375 -0.21875 C 7.34375 -0.0703125 7.265625 0 7.109375 0 L 1.09375 0 C 1 0 0.929688 -0.0195312 0.890625 -0.0625 C 0.847656 -0.101562 0.828125 -0.164062 0.828125 -0.25 Z M 0.828125 -8.625 "/></g></g></g><g fill="#ffffff" fill-opacity="1"><g transform="translate(43.293327, 14.113048)"><g><path d="M 6.6875 -0.40625 C 6.78125 -0.28125 6.828125 -0.1875 6.828125 -0.125 C 6.828125 -0.0390625 6.753906 0 6.609375 0 L 5.078125 0 C 4.890625 0 4.753906 -0.0625 4.671875 -0.1875 L 3.453125 -1.921875 C 3.378906 -2.023438 3.328125 -2.078125 3.296875 -2.078125 C 3.265625 -2.078125 3.21875 -2.03125 3.15625 -1.9375 L 1.90625 -0.1875 C 1.820312 -0.0625 1.691406 0 1.515625 0 L 0.53125 0 C 0.34375 0 0.25 -0.0546875 0.25 -0.171875 C 0.25 -0.253906 0.296875 -0.359375 0.390625 -0.484375 L 2.34375 -3 C 2.394531 -3.0625 2.421875 -3.113281 2.421875 -3.15625 C 2.421875 -3.21875 2.394531 -3.285156 2.34375 -3.359375 L 0.40625 -5.984375 C 0.375 -6.023438 0.359375 -6.070312 0.359375 -6.125 C 0.359375 -6.175781 0.378906 -6.21875 0.421875 -6.25 C 0.460938 -6.289062 0.515625 -6.3125 0.578125 -6.3125 L 2.03125 -6.3125 C 2.132812 -6.3125 2.210938 -6.296875 2.265625 -6.265625 C 2.316406 -6.242188 2.367188 -6.195312 2.421875 -6.125 L 3.53125 -4.5625 C 3.570312 -4.5 3.609375 -4.46875 3.640625 -4.46875 C 3.660156 -4.46875 3.691406 -4.5 3.734375 -4.5625 L 4.78125 -6.125 C 4.832031 -6.195312 4.878906 -6.242188 4.921875 -6.265625 C 4.972656 -6.296875 5.054688 -6.3125 5.171875 -6.3125 L 6.25 -6.3125 C 6.382812 -6.3125 6.453125 -6.273438 6.453125 -6.203125 C 6.453125 -6.160156 6.425781 -6.109375 6.375 -6.046875 L 4.609375 -3.640625 C 4.554688 -3.578125 4.53125 -3.519531 4.53125 -3.46875 C 4.53125 -3.425781 4.554688 -3.363281 4.609375 -3.28125 Z M 6.6875 -0.40625 "/></g></g></g><g fill="#ffffff" fill-opacity="1"><g transform="translate(50.339859, 14.113048)"><g><path d="M 3.546875 -6.4375 C 4.253906 -6.4375 4.835938 -6.257812 5.296875 -5.90625 C 5.765625 -5.550781 6.078125 -5.125 6.234375 -4.625 C 6.253906 -4.5625 6.265625 -4.519531 6.265625 -4.5 C 6.265625 -4.4375 6.207031 -4.394531 6.09375 -4.375 L 4.84375 -4.25 L 4.796875 -4.25 C 4.734375 -4.25 4.6875 -4.296875 4.65625 -4.390625 C 4.519531 -4.671875 4.375 -4.878906 4.21875 -5.015625 C 4.070312 -5.160156 3.863281 -5.234375 3.59375 -5.234375 C 3.164062 -5.234375 2.832031 -5.054688 2.59375 -4.703125 C 2.351562 -4.359375 2.234375 -3.84375 2.234375 -3.15625 C 2.234375 -2.457031 2.359375 -1.929688 2.609375 -1.578125 C 2.867188 -1.234375 3.234375 -1.0625 3.703125 -1.0625 C 4.023438 -1.0625 4.285156 -1.144531 4.484375 -1.3125 C 4.691406 -1.476562 4.898438 -1.734375 5.109375 -2.078125 C 5.128906 -2.117188 5.148438 -2.140625 5.171875 -2.140625 C 5.203125 -2.140625 5.25 -2.140625 5.3125 -2.140625 L 6.1875 -1.9375 C 6.257812 -1.925781 6.296875 -1.882812 6.296875 -1.8125 L 6.265625 -1.703125 C 6.109375 -1.242188 5.800781 -0.820312 5.34375 -0.4375 C 4.882812 -0.0625 4.285156 0.125 3.546875 0.125 C 2.929688 0.125 2.382812 -0.0078125 1.90625 -0.28125 C 1.425781 -0.5625 1.050781 -0.945312 0.78125 -1.4375 C 0.507812 -1.9375 0.375 -2.503906 0.375 -3.140625 C 0.375 -3.773438 0.507812 -4.34375 0.78125 -4.84375 C 1.050781 -5.351562 1.425781 -5.742188 1.90625 -6.015625 C 2.394531 -6.296875 2.941406 -6.4375 3.546875 -6.4375 Z M 3.546875 -6.4375 "/></g></g></g><g fill="#ffffff" fill-opacity="1"><g transform="translate(56.909466, 14.113048)"><g><path d="M 2.265625 -2.625 C 2.265625 -2.175781 2.410156 -1.8125 2.703125 -1.53125 C 3.003906 -1.257812 3.378906 -1.125 3.828125 -1.125 C 4.109375 -1.125 4.367188 -1.1875 4.609375 -1.3125 C 4.859375 -1.4375 5.109375 -1.644531 5.359375 -1.9375 C 5.390625 -1.96875 5.421875 -1.984375 5.453125 -1.984375 C 5.472656 -1.984375 5.507812 -1.96875 5.5625 -1.9375 L 6.421875 -1.578125 C 6.484375 -1.554688 6.515625 -1.519531 6.515625 -1.46875 C 6.515625 -1.425781 6.5 -1.382812 6.46875 -1.34375 C 6.082031 -0.800781 5.671875 -0.421875 5.234375 -0.203125 C 4.796875 0.015625 4.25 0.125 3.59375 0.125 C 2.988281 0.125 2.4375 -0.0078125 1.9375 -0.28125 C 1.445312 -0.550781 1.0625 -0.925781 0.78125 -1.40625 C 0.507812 -1.894531 0.375 -2.445312 0.375 -3.0625 C 0.375 -3.726562 0.515625 -4.316406 0.796875 -4.828125 C 1.085938 -5.347656 1.472656 -5.742188 1.953125 -6.015625 C 2.441406 -6.296875 2.976562 -6.4375 3.5625 -6.4375 C 4.164062 -6.4375 4.703125 -6.300781 5.171875 -6.03125 C 5.640625 -5.769531 6.003906 -5.390625 6.265625 -4.890625 C 6.535156 -4.390625 6.671875 -3.789062 6.671875 -3.09375 C 6.671875 -2.988281 6.660156 -2.914062 6.640625 -2.875 C 6.617188 -2.84375 6.5625 -2.820312 6.46875 -2.8125 L 2.40625 -2.8125 C 2.3125 -2.8125 2.265625 -2.75 2.265625 -2.625 Z M 4.65625 -3.8125 C 4.75 -3.8125 4.804688 -3.820312 4.828125 -3.84375 C 4.847656 -3.863281 4.859375 -3.910156 4.859375 -3.984375 C 4.859375 -4.191406 4.8125 -4.394531 4.71875 -4.59375 C 4.625 -4.800781 4.484375 -4.972656 4.296875 -5.109375 C 4.117188 -5.242188 3.898438 -5.3125 3.640625 -5.3125 C 3.242188 -5.3125 2.914062 -5.171875 2.65625 -4.890625 C 2.40625 -4.617188 2.28125 -4.265625 2.28125 -3.828125 Z M 4.65625 -3.8125 "/></g></g></g><g fill="#ffffff" fill-opacity="1"><g transform="translate(63.896379, 14.113048)"><g><path d="M 2.5 -0.28125 C 2.5 -0.175781 2.472656 -0.101562 2.421875 -0.0625 C 2.378906 -0.0195312 2.300781 0 2.1875 0 L 0.921875 0 C 0.828125 0 0.757812 -0.0195312 0.71875 -0.0625 C 0.675781 -0.101562 0.65625 -0.164062 0.65625 -0.25 L 0.6875 -8.625 C 0.6875 -8.769531 0.75 -8.84375 0.875 -8.84375 L 2.328125 -8.84375 C 2.441406 -8.84375 2.5 -8.769531 2.5 -8.625 Z M 2.5 -0.28125 "/></g></g></g></svg>